<svg width="24" height="25" viewBox="0 0 24 25" fill="none" xmlns="http://www.w3.org/2000/svg">
<path fill-rule="evenodd" clip-rule="evenodd" d="M7.20979 4.19207C7.27613 4.13119 7.35493 4.08288 7.44169 4.04992C7.52844 4.01697 7.62145 4 7.71538 4C7.80931 4 7.90232 4.01697 7.98907 4.04992C8.07583 4.08288 8.15463 4.13119 8.22097 4.19207L16.7902 12.0373C16.8567 12.098 16.9095 12.1702 16.9455 12.2496C16.9815 12.329 17 12.4142 17 12.5002C17 12.5862 16.9815 12.6713 16.9455 12.7507C16.9095 12.8302 16.8567 12.9023 16.7902 12.963L8.22097 20.8083C8.08688 20.931 7.90501 21 7.71538 21C7.52575 21 7.34388 20.931 7.20979 20.8083C7.0757 20.6855 7.00037 20.519 7.00037 20.3454C7.00037 20.1718 7.0757 20.0053 7.20979 19.8825L15.2749 12.5002L7.20979 5.11781C7.14329 5.05708 7.09053 4.98493 7.05453 4.90551C7.01853 4.82608 7 4.74093 7 4.65494C7 4.56894 7.01853 4.4838 7.05453 4.40437C7.09053 4.32494 7.14329 4.2528 7.20979 4.19207Z" fill="#222222"/>
</svg>
