<svg width="20" height="20" viewBox="0 0 20 20" fill="none" xmlns="http://www.w3.org/2000/svg">
<g clip-path="url(#clip0_207_2722)">
<path d="M17.9982 14.8388C17.3469 14.1826 15.7695 13.225 15.0041 12.839C14.0075 12.337 13.9255 12.296 13.1422 12.8779C12.6196 13.2664 12.2722 13.6134 11.6607 13.4829C11.0492 13.3525 9.72032 12.6171 8.55676 11.4572C7.39317 10.2974 6.61516 8.92995 6.4843 8.32046C6.35352 7.71101 6.70622 7.36773 7.09094 6.84398C7.63313 6.10569 7.59211 5.98269 7.12864 4.98601C6.76731 4.21089 5.78176 2.64823 5.12309 2.00022C4.41844 1.30421 4.41844 1.42726 3.96442 1.61593C3.59477 1.77144 3.24016 1.9605 2.90501 2.18069C2.24879 2.61667 1.88458 2.97882 1.62989 3.52308C1.3752 4.0673 1.26079 5.34327 2.5761 7.73276C3.89141 10.1222 4.81422 11.3441 6.72426 13.2487C8.63426 15.1534 10.103 16.1775 12.25 17.3817C14.9061 18.8693 15.9249 18.5793 16.4708 18.325C17.0167 18.0707 17.3805 17.7098 17.8173 17.0536C18.0381 16.719 18.2275 16.3648 18.3833 15.9954C18.5724 15.543 18.6954 15.543 17.9982 14.8388Z" stroke="#00B241" stroke-width="1.25" stroke-miterlimit="10"/>
</g>
<defs>
<clipPath id="clip0_207_2722">
<rect width="20" height="20" fill="white"/>
</clipPath>
</defs>
</svg>
