<svg width="33" height="32" viewBox="0 0 33 32" fill="none" xmlns="http://www.w3.org/2000/svg">
<rect x="0.833374" y="0.5" width="31" height="31" rx="3.5" fill="#F9F9F9"/>
<rect x="0.833374" y="0.5" width="31" height="31" rx="3.5" stroke="#F0F0F0"/>
<path d="M11.3334 11.6251C11.3334 12.0628 11.4196 12.4963 11.5871 12.9007C11.7546 13.3051 12.0002 13.6726 12.3097 13.9821C12.6192 14.2916 12.9867 14.5372 13.3911 14.7047C13.7955 14.8722 14.229 14.9584 14.6667 14.9584C15.1044 14.9584 15.5379 14.8722 15.9423 14.7047C16.3467 14.5372 16.7142 14.2916 17.0237 13.9821C17.3333 13.6726 17.5788 13.3051 17.7463 12.9007C17.9138 12.4963 18 12.0628 18 11.6251C18 10.741 17.6489 9.89318 17.0237 9.26806C16.3986 8.64294 15.5508 8.29175 14.6667 8.29175C13.7827 8.29175 12.9348 8.64294 12.3097 9.26806C11.6846 9.89318 11.3334 10.741 11.3334 11.6251Z" fill="#626262"/>
<path d="M8.83337 20.7916C8.83337 21.2293 8.98426 21.6628 9.27741 22.0672C9.57056 22.4716 10.0002 22.8391 10.5419 23.1486C11.0836 23.4581 11.7267 23.7037 12.4344 23.8712C13.1421 24.0387 13.9007 24.1249 14.6667 24.1249C15.4328 24.1249 16.1913 24.0387 16.899 23.8712C17.6068 23.7037 18.2498 23.4581 18.7915 23.1486C19.3332 22.8391 19.7629 22.4716 20.056 22.0672C20.3492 21.6628 20.5 21.2293 20.5 20.7916C20.5 20.3538 20.3492 19.9204 20.056 19.516C19.7629 19.1116 19.3332 18.7441 18.7915 18.4346C18.2498 18.125 17.6068 17.8795 16.899 17.712C16.1913 17.5445 15.4328 17.4583 14.6667 17.4583C13.9007 17.4583 13.1421 17.5445 12.4344 17.712C11.7267 17.8795 11.0836 18.125 10.5419 18.4346C10.0002 18.7441 9.57056 19.1116 9.27741 19.516C8.98426 19.9204 8.83337 20.3538 8.83337 20.7916Z" fill="#626262"/>
<path fill-rule="evenodd" clip-rule="evenodd" d="M21.6309 7.97028C21.8086 7.6743 22.1925 7.57832 22.4884 7.75591L22.1669 8.29184C22.4884 7.75591 22.4882 7.75574 22.4884 7.75591L22.4896 7.75661L22.4909 7.7574L22.494 7.75927L22.502 7.76421C22.5081 7.76802 22.5158 7.77289 22.525 7.77882C22.5433 7.79067 22.5676 7.80682 22.5969 7.82735C22.6555 7.86837 22.7347 7.92712 22.8274 8.00442C23.0125 8.15866 23.2546 8.38907 23.4956 8.70244C23.9813 9.33389 24.4586 10.298 24.4586 11.6252C24.4586 12.9524 23.9813 13.9165 23.4956 14.5479C23.2546 14.8612 23.0125 15.0917 22.8274 15.2459C22.7347 15.3232 22.6555 15.382 22.5969 15.423C22.5676 15.4435 22.5433 15.4597 22.525 15.4715C22.5158 15.4775 22.5081 15.4823 22.502 15.4862L22.494 15.4911L22.4909 15.4929L22.4896 15.4937C22.4893 15.4939 22.4884 15.4944 22.1669 14.9585L22.4884 15.4944C22.1925 15.672 21.8086 15.5761 21.6309 15.2801C21.4541 14.9853 21.5485 14.6034 21.8416 14.4248L21.8462 14.4219C21.8523 14.4179 21.8638 14.4103 21.8801 14.399C21.9127 14.3762 21.9637 14.3386 22.0272 14.2857C22.1546 14.1795 22.3292 14.0141 22.5048 13.7858C22.8524 13.3339 23.2086 12.6313 23.2086 11.6252C23.2086 10.6191 22.8524 9.91647 22.5048 9.46458C22.3292 9.23629 22.1546 9.07087 22.0272 8.96469C21.9637 8.91177 21.9127 8.87417 21.8801 8.85139C21.8638 8.84002 21.8523 8.8324 21.8462 8.82847L21.8416 8.82552C21.5485 8.64696 21.4541 8.26502 21.6309 7.97028Z" fill="#626262"/>
<path fill-rule="evenodd" clip-rule="evenodd" d="M19.9411 9.67888C20.0955 9.37015 20.4709 9.245 20.7797 9.39937L20.5002 9.95839C20.7797 9.39937 20.7793 9.3992 20.7797 9.39937L20.781 9.40005L20.7824 9.40077L20.7855 9.40235L20.7927 9.40606L20.8107 9.41574C20.8243 9.4232 20.8409 9.43275 20.8603 9.4445C20.8989 9.46795 20.9486 9.50045 21.0053 9.54303C21.1186 9.62799 21.2628 9.75488 21.4048 9.93254C21.6954 10.2958 21.9585 10.8482 21.9585 11.6251C21.9585 12.4019 21.6954 12.9543 21.4048 13.3176C21.2628 13.4952 21.1186 13.6221 21.0053 13.7071C20.9486 13.7497 20.8989 13.7822 20.8603 13.8056C20.8409 13.8174 20.8243 13.8269 20.8107 13.8344L20.7927 13.844L20.7855 13.8478L20.7824 13.8493L20.781 13.8501C20.7807 13.8502 20.7797 13.8507 20.5053 13.3022L20.7797 13.8507C20.4709 14.0051 20.0955 13.88 19.9411 13.5712C19.7887 13.2663 19.9088 12.8964 20.2092 12.7386C20.2098 12.7382 20.2106 12.7377 20.2116 12.7371C20.2185 12.7329 20.234 12.7231 20.2553 12.7071C20.2983 12.6749 20.3626 12.6195 20.4288 12.5367C20.5548 12.3791 20.7085 12.0982 20.7085 11.6251C20.7085 11.1519 20.5548 10.871 20.4288 10.7134C20.3626 10.6307 20.2983 10.5753 20.2553 10.543C20.234 10.527 20.2185 10.5172 20.2116 10.513C20.2106 10.5124 20.2098 10.5119 20.2092 10.5115C19.9088 10.3537 19.7887 9.98377 19.9411 9.67888Z" fill="#626262"/>
</svg>
