<svg width="20" height="20" viewBox="0 0 20 20" fill="none" xmlns="http://www.w3.org/2000/svg">
<g clip-path="url(#clip0_151_2172)">
<path d="M17.9981 14.8388C17.3468 14.1826 15.7694 13.225 15.0041 12.839C14.0074 12.337 13.9254 12.296 13.1421 12.8779C12.6196 13.2664 12.2721 13.6134 11.6606 13.4829C11.0491 13.3525 9.72026 12.6171 8.5567 11.4572C7.39311 10.2974 6.6151 8.92995 6.48424 8.32046C6.35346 7.71101 6.70616 7.36773 7.09088 6.84398C7.63307 6.10569 7.59205 5.98269 7.12858 4.98601C6.76725 4.21089 5.7817 2.64823 5.12303 2.00022C4.41838 1.30421 4.41838 1.42726 3.96436 1.61593C3.59471 1.77144 3.2401 1.9605 2.90494 2.18069C2.24873 2.61667 1.88451 2.97882 1.62983 3.52308C1.37514 4.0673 1.26073 5.34327 2.57604 7.73276C3.89135 10.1222 4.81416 11.3441 6.7242 13.2487C8.6342 15.1534 10.1029 16.1775 12.25 17.3817C14.9061 18.8693 15.9249 18.5793 16.4707 18.325C17.0166 18.0707 17.3805 17.7098 17.8172 17.0536C18.038 16.719 18.2274 16.3648 18.3832 15.9954C18.5723 15.543 18.6953 15.543 17.9981 14.8388Z" stroke="#00B241" stroke-width="1.25" stroke-miterlimit="10"/>
</g>
<defs>
<clipPath id="clip0_151_2172">
<rect width="20" height="20" fill="white"/>
</clipPath>
</defs>
</svg>
