<svg width="32" height="32" viewBox="0 0 32 32" fill="none" xmlns="http://www.w3.org/2000/svg">
<rect x="0.5" y="0.5" width="31" height="31" rx="3.5" fill="#F9F9F9"/>
<rect x="0.5" y="0.5" width="31" height="31" rx="3.5" stroke="#F0F0F0"/>
<path d="M11 11.6251C11 12.0628 11.0862 12.4963 11.2537 12.9007C11.4213 13.3051 11.6668 13.6726 11.9763 13.9821C12.2858 14.2916 12.6533 14.5372 13.0577 14.7047C13.4621 14.8722 13.8956 14.9584 14.3333 14.9584C14.7711 14.9584 15.2045 14.8722 15.6089 14.7047C16.0134 14.5372 16.3808 14.2916 16.6904 13.9821C16.9999 13.6726 17.2454 13.3051 17.4129 12.9007C17.5804 12.4963 17.6667 12.0628 17.6667 11.6251C17.6667 10.741 17.3155 9.89318 16.6904 9.26806C16.0652 8.64294 15.2174 8.29175 14.3333 8.29175C13.4493 8.29175 12.6014 8.64294 11.9763 9.26806C11.3512 9.89318 11 10.741 11 11.6251Z" fill="#626262"/>
<path d="M8.5 20.7916C8.5 21.2293 8.65088 21.6628 8.94404 22.0672C9.23719 22.4716 9.66687 22.8391 10.2085 23.1486C10.7502 23.4581 11.3933 23.7037 12.101 23.8712C12.8087 24.0387 13.5673 24.1249 14.3333 24.1249C15.0994 24.1249 15.8579 24.0387 16.5657 23.8712C17.2734 23.7037 17.9164 23.4581 18.4581 23.1486C18.9998 22.8391 19.4295 22.4716 19.7226 22.0672C20.0158 21.6628 20.1667 21.2293 20.1667 20.7916C20.1667 20.3538 20.0158 19.9204 19.7226 19.516C19.4295 19.1116 18.9998 18.7441 18.4581 18.4346C17.9164 18.125 17.2734 17.8795 16.5657 17.712C15.8579 17.5445 15.0994 17.4583 14.3333 17.4583C13.5673 17.4583 12.8087 17.5445 12.101 17.712C11.3933 17.8795 10.7502 18.125 10.2085 18.4346C9.66687 18.7441 9.23719 19.1116 8.94404 19.516C8.65088 19.9204 8.5 20.3538 8.5 20.7916Z" fill="#626262"/>
<path fill-rule="evenodd" clip-rule="evenodd" d="M21.2975 7.97028C21.4752 7.6743 21.8591 7.57832 22.155 7.75591L21.8335 8.29184C22.155 7.75591 22.1548 7.75574 22.155 7.75591L22.1562 7.75661L22.1575 7.7574L22.1606 7.75927L22.1686 7.76421C22.1747 7.76802 22.1824 7.77289 22.1916 7.77882C22.2099 7.79067 22.2342 7.80682 22.2635 7.82735C22.3221 7.86837 22.4013 7.92712 22.494 8.00442C22.6791 8.15866 22.9212 8.38907 23.1622 8.70244C23.6479 9.33389 24.1252 10.298 24.1252 11.6252C24.1252 12.9524 23.6479 13.9165 23.1622 14.5479C22.9212 14.8612 22.6791 15.0917 22.494 15.2459C22.4013 15.3232 22.3221 15.382 22.2635 15.423C22.2342 15.4435 22.2099 15.4597 22.1916 15.4715C22.1824 15.4775 22.1747 15.4823 22.1686 15.4862L22.1606 15.4911L22.1575 15.4929L22.1562 15.4937C22.1559 15.4939 22.155 15.4944 21.8335 14.9585L22.155 15.4944C21.8591 15.672 21.4752 15.5761 21.2975 15.2801C21.1207 14.9853 21.2151 14.6034 21.5082 14.4248L21.5129 14.4219C21.5189 14.4179 21.5304 14.4103 21.5467 14.399C21.5793 14.3762 21.6303 14.3386 21.6938 14.2857C21.8212 14.1795 21.9959 14.0141 22.1714 13.7858C22.519 13.3339 22.8752 12.6313 22.8752 11.6252C22.8752 10.6191 22.519 9.91647 22.1714 9.46458C21.9959 9.23629 21.8212 9.07087 21.6938 8.96469C21.6303 8.91177 21.5793 8.87417 21.5467 8.85139C21.5304 8.84002 21.5189 8.8324 21.5129 8.82847L21.5082 8.82552C21.2151 8.64696 21.1207 8.26502 21.2975 7.97028Z" fill="#626262"/>
<path fill-rule="evenodd" clip-rule="evenodd" d="M19.6077 9.67888C19.7621 9.37015 20.1376 9.245 20.4463 9.39937L20.1668 9.95839C20.4463 9.39937 20.446 9.3992 20.4463 9.39937L20.4476 9.40005L20.4491 9.40077L20.4521 9.40235L20.4593 9.40606L20.4773 9.41574C20.4909 9.4232 20.5076 9.43275 20.527 9.4445C20.5656 9.46795 20.6152 9.50045 20.672 9.54303C20.7852 9.62799 20.9294 9.75488 21.0715 9.93254C21.3621 10.2958 21.6251 10.8482 21.6251 11.6251C21.6251 12.4019 21.3621 12.9543 21.0715 13.3176C20.9294 13.4952 20.7852 13.6221 20.672 13.7071C20.6152 13.7497 20.5656 13.7822 20.527 13.8056C20.5076 13.8174 20.4909 13.8269 20.4773 13.8344L20.4593 13.844L20.4521 13.8478L20.4491 13.8493L20.4476 13.8501C20.4473 13.8502 20.4463 13.8507 20.172 13.3022L20.4463 13.8507C20.1376 14.0051 19.7621 13.88 19.6077 13.5712C19.4553 13.2663 19.5755 12.8964 19.8758 12.7386C19.8765 12.7382 19.8772 12.7377 19.8782 12.7371C19.8851 12.7329 19.9006 12.7231 19.922 12.7071C19.965 12.6749 20.0292 12.6195 20.0954 12.5367C20.2215 12.3791 20.3751 12.0982 20.3751 11.6251C20.3751 11.1519 20.2215 10.871 20.0954 10.7134C20.0292 10.6307 19.965 10.5753 19.922 10.543C19.9006 10.527 19.8851 10.5172 19.8782 10.513C19.8772 10.5124 19.8765 10.5119 19.8758 10.5115C19.5755 10.3537 19.4553 9.98377 19.6077 9.67888Z" fill="#626262"/>
</svg>
