<svg width="40" height="40" viewBox="0 0 40 40" fill="none" xmlns="http://www.w3.org/2000/svg">
<rect width="40" height="40" rx="20" fill="#ECFBF0"/>
<path fill-rule="evenodd" clip-rule="evenodd" d="M27 11H29V15.175L30.6 13.575L32 15L28 19L24 15L25.425 13.6L27 15.175V11ZM28 26V21C25.027 21 22.559 18.8377 22.083 16H12C11.45 16 10.9792 16.1958 10.5875 16.5875C10.1958 16.9792 10 17.45 10 18V26C10 26.55 10.1958 27.0208 10.5875 27.4125C10.9792 27.8042 11.45 28 12 28H26C26.55 28 27.0208 27.8042 27.4125 27.4125C27.8042 27.0208 28 26.55 28 26ZM14 26C14 25.45 13.8042 24.9792 13.4125 24.5875C13.0208 24.1958 12.55 24 12 24V26H14ZM24 26H26V24C25.45 24 24.9792 24.1958 24.5875 24.5875C24.1958 24.9792 24 25.45 24 26ZM19 25C19.8333 25 20.5417 24.7083 21.125 24.125C21.7083 23.5417 22 22.8333 22 22C22 21.1667 21.7083 20.4583 21.125 19.875C20.5417 19.2917 19.8333 19 19 19C18.1667 19 17.4583 19.2917 16.875 19.875C16.2917 20.4583 16 21.1667 16 22C16 22.8333 16.2917 23.5417 16.875 24.125C17.4583 24.7083 18.1667 25 19 25ZM12 20C12.55 20 13.0208 19.8042 13.4125 19.4125C13.8042 19.0208 14 18.55 14 18H12V20Z" fill="#00B241"/>
</svg>
