<svg width="260" height="260" viewBox="0 0 260 260" fill="none" xmlns="http://www.w3.org/2000/svg">
<g clip-path="url(#clip0_2024_1159)">
<rect width="260" height="260" rx="12" fill="#EEF9FF"/>
<g opacity="0.5">
<path d="M15.3063 51.5428H118.171V0.25H0V51.5428H15.3063Z" fill="white"/>
<path d="M118.171 51.5428V97.306H157.914L200.775 51.5428H118.171Z" fill="white"/>
<path d="M118.171 147.394H200.775V117.002H118.171V147.394Z" fill="white"/>
<path d="M55.8288 215.191L118.171 147.394H55.8288V215.191Z" fill="white"/>
<path d="M55.8288 117.002L15.3063 51.5428H0L0.5 194.151L10.6306 184.02L49.3741 141.887C51.5487 139.522 52.961 136.557 53.4272 133.378L55.8288 117.002Z" fill="white"/>
<path d="M75.5251 97.306C64.6472 97.306 55.8288 106.124 55.8288 117.002H118.171V97.306H75.5251Z" fill="white"/>
<path d="M200.775 -0.25V51.5428H260.5V-0.25H200.775Z" fill="white"/>
<path d="M260 147.394H200.775V215.191V259.75H260.5L260 147.394Z" fill="white"/>
<path d="M55.8288 215.191H0.5V259.75H55.8288V215.191Z" fill="white"/>
<path d="M55.8288 215.191L118.171 147.394M55.8288 215.191V147.394M55.8288 215.191H0.5M55.8288 215.191H200.775M55.8288 215.191V259.75M118.171 147.394H55.8288M118.171 147.394H200.775M118.171 147.394V117.002M118.171 51.5428H15.3063M118.171 51.5428H200.775M118.171 51.5428V0.25M118.171 51.5428V97.306M15.3063 51.5428L55.8288 117.002M15.3063 51.5428H0M55.8288 117.002V147.394M55.8288 117.002V117.002C55.8288 106.124 64.6472 97.306 75.5251 97.306H118.171M55.8288 117.002L53.4272 133.378C52.961 136.557 51.5487 139.522 49.3741 141.887L10.6306 184.02L0.5 194.151M55.8288 117.002H118.171M200.775 147.394H260L260.5 259.75M200.775 147.394V215.191M200.775 147.394V117.002M200.775 147.394V259.75M200.775 215.191V259.75M200.775 51.5428L157.914 97.306H118.171M200.775 51.5428V117.002M200.775 51.5428V-0.25M200.775 51.5428H260.5M0.5 194.151V213.633V215.191M0.5 194.151L0 51.5428M200.775 117.002H118.171M200.775 259.75H55.8288M200.775 259.75H260.5M55.8288 260.25V259.75M118.171 0.25L200.775 -0.25M118.171 0.25H0V51.5428M200.775 -0.25H260.5V51.5428M260.5 51.5428V259.75M0.5 215.191V259.75H55.8288M118.171 97.306V117.002" stroke="#E0E7FB"/>
</g>
<rect x="70" y="70" width="120" height="120" rx="60" fill="#F7FCFF"/>
<rect x="70.5" y="70.5" width="119" height="119" rx="59.5" stroke="#3A6AFC" stroke-opacity="0.16"/>
<rect x="90" y="90" width="80" height="80" rx="40" fill="#23ABFF"/>
<g clip-path="url(#clip1_2024_1159)">
<path fill-rule="evenodd" clip-rule="evenodd" d="M112 126.25L119.863 132.653C121.678 128.872 125.535 126.25 130 126.25C134.467 126.25 138.322 128.874 140.137 132.653L148 126.25L130 112L112 126.25ZM122.575 130.075C124.545 128.106 127.215 127 130 127C132.785 127 135.455 128.106 137.425 130.075C139.394 132.045 140.5 134.715 140.5 137.5C140.5 140.285 139.394 142.955 137.425 144.925C135.455 146.894 132.785 148 130 148C127.215 148 124.545 146.894 122.575 144.925C120.606 142.955 119.5 140.285 119.5 137.5C119.5 134.715 120.606 132.045 122.575 130.075ZM130.73 130.314C130.922 130.515 131.029 130.787 131.029 131.071V132.163C131.602 132.23 132.144 132.465 132.596 132.84C133.047 133.215 133.388 133.716 133.58 134.286C133.663 134.552 133.643 134.841 133.525 135.092C133.408 135.343 133.201 135.535 132.949 135.629C132.698 135.722 132.422 135.708 132.18 135.591C131.938 135.474 131.749 135.262 131.654 135.001C131.584 134.791 131.453 134.61 131.28 134.482C131.107 134.354 130.901 134.286 130.689 134.287H129.106C128.907 134.285 128.714 134.36 128.564 134.498C128.415 134.637 128.32 134.829 128.299 135.037C128.277 135.245 128.331 135.454 128.448 135.623C128.566 135.792 128.739 135.908 128.935 135.95L131.343 136.502C132.052 136.666 132.683 137.089 133.123 137.694C133.563 138.3 133.784 139.049 133.746 139.81C133.708 140.57 133.415 141.292 132.917 141.846C132.42 142.401 131.751 142.752 131.029 142.838V143.929C131.029 144.213 130.922 144.485 130.73 144.686C130.538 144.887 130.278 145 130.007 145C129.736 145 129.476 144.887 129.285 144.686C129.093 144.485 128.985 144.213 128.985 143.929V142.838C128.413 142.771 127.87 142.536 127.419 142.16C126.968 141.785 126.627 141.284 126.435 140.714C126.385 140.58 126.361 140.437 126.365 140.294C126.369 140.15 126.4 140.009 126.457 139.878C126.514 139.747 126.596 139.63 126.697 139.533C126.798 139.436 126.917 139.361 127.046 139.314C127.175 139.266 127.312 139.246 127.449 139.254C127.586 139.263 127.72 139.301 127.843 139.365C127.965 139.429 128.074 139.519 128.163 139.628C128.252 139.737 128.32 139.864 128.361 140.001C128.432 140.21 128.562 140.391 128.735 140.519C128.908 140.646 129.114 140.715 129.325 140.714H130.689C130.942 140.715 131.185 140.617 131.373 140.441C131.561 140.264 131.68 140.021 131.707 139.757C131.735 139.494 131.668 139.23 131.52 139.015C131.372 138.801 131.153 138.651 130.907 138.595L128.498 138.043C127.82 137.891 127.219 137.484 126.807 136.9C126.395 136.316 126.201 135.594 126.261 134.869C126.32 134.145 126.63 133.469 127.132 132.968C127.634 132.466 128.293 132.174 128.985 132.146V131.071C128.985 130.787 129.093 130.515 129.285 130.314C129.476 130.113 129.736 130 130.007 130C130.278 130 130.538 130.113 130.73 130.314Z" fill="white"/>
</g>
</g>
<rect x="0.5" y="0.5" width="259" height="259" rx="11.5" stroke="#E0E7FB"/>
<defs>
<clipPath id="clip0_2024_1159">
<rect width="260" height="260" rx="12" fill="white"/>
</clipPath>
<clipPath id="clip1_2024_1159">
<rect width="36" height="36" fill="white" transform="translate(112 112)"/>
</clipPath>
</defs>
</svg>
