<svg width="18" height="18" viewBox="0 0 18 18" fill="none" xmlns="http://www.w3.org/2000/svg">
<path d="M6.7847 11.7693H2.90775C2.61396 11.7693 2.33222 11.6526 2.12449 11.4449C1.91675 11.2371 1.80005 10.9554 1.80005 10.6616V2.9077C1.80005 2.61391 1.91675 2.33217 2.12449 2.12444C2.33222 1.9167 2.61396 1.8 2.90775 1.8H13.9847C14.2785 1.8 14.5603 1.9167 14.768 2.12444C14.9757 2.33217 15.0924 2.61391 15.0924 2.9077V7.3385" stroke="#222222" stroke-width="1.25" stroke-linecap="round" stroke-linejoin="round"/>
<path d="M1.79993 3.19558L8.44612 7.89222L15.0923 3.19558" stroke="#222222" stroke-width="1.25" stroke-linecap="round" stroke-linejoin="round"/>
<path d="M12.3231 15.0923C13.8525 15.0923 15.0923 13.8525 15.0923 12.3231C15.0923 10.7937 13.8525 9.55383 12.3231 9.55383C10.7937 9.55383 9.55383 10.7937 9.55383 12.3231C9.55383 13.8525 10.7937 15.0923 12.3231 15.0923Z" stroke="#222222" stroke-width="1.25" stroke-linecap="round" stroke-linejoin="round"/>
<path d="M16.2 16.1999L14.2837 14.2836" stroke="#222222" stroke-linecap="round" stroke-linejoin="round"/>
</svg>
