<svg width="34" height="21" viewBox="0 0 34 21" fill="none" xmlns="http://www.w3.org/2000/svg">
<path d="M1 4.7619L1.0792 4.65905C2.80109 2.42283 6.23493 2.62508 7.6824 5.04798L10.4216 9.63304C11.7137 11.796 14.6597 12.2401 16.532 10.5541L17.0693 10.0704C18.61 8.68309 20.9552 8.70289 22.4723 10.116L33.0833 20" stroke="#D32F2F"/>
<path d="M1.0792 4.65905L1 4.7619V20H34L22.463 9.9468C20.9382 8.61812 18.6615 8.63665 17.1586 9.98997L16.532 10.5541C14.6597 12.2401 11.7137 11.796 10.4216 9.63304L7.6824 5.04798C6.23493 2.62508 2.80109 2.42283 1.0792 4.65905Z" fill="url(#paint0_linear_92_1567)" fill-opacity="0.24"/>
<defs>
<linearGradient id="paint0_linear_92_1567" x1="29.6458" y1="0" x2="29.6458" y2="20" gradientUnits="userSpaceOnUse">
<stop stop-color="#D32F2F"/>
<stop offset="1" stop-color="#D32F2F" stop-opacity="0.24"/>
</linearGradient>
</defs>
</svg>
