<svg width="24" height="24" viewBox="0 0 24 24" fill="none" xmlns="http://www.w3.org/2000/svg">
<path d="M19.5 2H4.5C3.83696 2 3.20107 2.26339 2.73223 2.73223C2.26339 3.20107 2 3.83696 2 4.5L2 19.5C2 20.163 2.26339 20.7989 2.73223 21.2678C3.20107 21.7366 3.83696 22 4.5 22H19.5C20.163 22 20.7989 21.7366 21.2678 21.2678C21.7366 20.7989 22 20.163 22 19.5V4.5C22 3.83696 21.7366 3.20107 21.2678 2.73223C20.7989 2.26339 20.163 2 19.5 2ZM3.25 6.82125C3.25 6.23 3.81 5.75 4.5 5.75H19.5C20.19 5.75 20.75 6.23 20.75 6.82125V19.6787C20.75 20.27 20.19 20.75 19.5 20.75H4.5C3.81 20.75 3.25 20.27 3.25 19.6787V6.82125Z" fill="#626262"/>
<path d="M10.0909 10.5C10.4285 10.5 10.7522 10.3683 10.9909 10.1339C11.2295 9.89946 11.3636 9.58152 11.3636 9.25C11.3636 8.91848 11.2295 8.60054 10.9909 8.36612C10.7522 8.1317 10.4285 8 10.0909 8C9.75336 8 9.42964 8.1317 9.19096 8.36612C8.95227 8.60054 8.81818 8.91848 8.81818 9.25C8.81818 9.58152 8.95227 9.89946 9.19096 10.1339C9.42964 10.3683 9.75336 10.5 10.0909 10.5ZM13.9091 10.5C14.2466 10.5 14.5704 10.3683 14.809 10.1339C15.0477 9.89946 15.1818 9.58152 15.1818 9.25C15.1818 8.91848 15.0477 8.60054 14.809 8.36612C14.5704 8.1317 14.2466 8 13.9091 8C13.5715 8 13.2478 8.1317 13.0091 8.36612C12.7705 8.60054 12.6364 8.91848 12.6364 9.25C12.6364 9.58152 12.7705 9.89946 13.0091 10.1339C13.2478 10.3683 13.5715 10.5 13.9091 10.5ZM17.7273 10.5C18.0648 10.5 18.3885 10.3683 18.6272 10.1339C18.8659 9.89946 19 9.58152 19 9.25C19 8.91848 18.8659 8.60054 18.6272 8.36612C18.3885 8.1317 18.0648 8 17.7273 8C17.3897 8 17.066 8.1317 16.8273 8.36612C16.5886 8.60054 16.4545 8.91848 16.4545 9.25C16.4545 9.58152 16.5886 9.89946 16.8273 10.1339C17.066 10.3683 17.3897 10.5 17.7273 10.5ZM6.27273 14.25C6.61028 14.25 6.934 14.1183 7.17268 13.8839C7.41136 13.6495 7.54545 13.3315 7.54545 13C7.54545 12.6685 7.41136 12.3505 7.17268 12.1161C6.934 11.8817 6.61028 11.75 6.27273 11.75C5.93518 11.75 5.61146 11.8817 5.37277 12.1161C5.13409 12.3505 5 12.6685 5 13C5 13.3315 5.13409 13.6495 5.37277 13.8839C5.61146 14.1183 5.93518 14.25 6.27273 14.25ZM10.0909 14.25C10.4285 14.25 10.7522 14.1183 10.9909 13.8839C11.2295 13.6495 11.3636 13.3315 11.3636 13C11.3636 12.6685 11.2295 12.3505 10.9909 12.1161C10.7522 11.8817 10.4285 11.75 10.0909 11.75C9.75336 11.75 9.42964 11.8817 9.19096 12.1161C8.95227 12.3505 8.81818 12.6685 8.81818 13C8.81818 13.3315 8.95227 13.6495 9.19096 13.8839C9.42964 14.1183 9.75336 14.25 10.0909 14.25ZM13.9091 14.25C14.2466 14.25 14.5704 14.1183 14.809 13.8839C15.0477 13.6495 15.1818 13.3315 15.1818 13C15.1818 12.6685 15.0477 12.3505 14.809 12.1161C14.5704 11.8817 14.2466 11.75 13.9091 11.75C13.5715 11.75 13.2478 11.8817 13.0091 12.1161C12.7705 12.3505 12.6364 12.6685 12.6364 13C12.6364 13.3315 12.7705 13.6495 13.0091 13.8839C13.2478 14.1183 13.5715 14.25 13.9091 14.25ZM17.7273 14.25C18.0648 14.25 18.3885 14.1183 18.6272 13.8839C18.8659 13.6495 19 13.3315 19 13C19 12.6685 18.8659 12.3505 18.6272 12.1161C18.3885 11.8817 18.0648 11.75 17.7273 11.75C17.3897 11.75 17.066 11.8817 16.8273 12.1161C16.5886 12.3505 16.4545 12.6685 16.4545 13C16.4545 13.3315 16.5886 13.6495 16.8273 13.8839C17.066 14.1183 17.3897 14.25 17.7273 14.25ZM6.27273 18C6.61028 18 6.934 17.8683 7.17268 17.6339C7.41136 17.3995 7.54545 17.0815 7.54545 16.75C7.54545 16.4185 7.41136 16.1005 7.17268 15.8661C6.934 15.6317 6.61028 15.5 6.27273 15.5C5.93518 15.5 5.61146 15.6317 5.37277 15.8661C5.13409 16.1005 5 16.4185 5 16.75C5 17.0815 5.13409 17.3995 5.37277 17.6339C5.61146 17.8683 5.93518 18 6.27273 18ZM10.0909 18C10.4285 18 10.7522 17.8683 10.9909 17.6339C11.2295 17.3995 11.3636 17.0815 11.3636 16.75C11.3636 16.4185 11.2295 16.1005 10.9909 15.8661C10.7522 15.6317 10.4285 15.5 10.0909 15.5C9.75336 15.5 9.42964 15.6317 9.19096 15.8661C8.95227 16.1005 8.81818 16.4185 8.81818 16.75C8.81818 17.0815 8.95227 17.3995 9.19096 17.6339C9.42964 17.8683 9.75336 18 10.0909 18ZM13.9091 18C14.2466 18 14.5704 17.8683 14.809 17.6339C15.0477 17.3995 15.1818 17.0815 15.1818 16.75C15.1818 16.4185 15.0477 16.1005 14.809 15.8661C14.5704 15.6317 14.2466 15.5 13.9091 15.5C13.5715 15.5 13.2478 15.6317 13.0091 15.8661C12.7705 16.1005 12.6364 16.4185 12.6364 16.75C12.6364 17.0815 12.7705 17.3995 13.0091 17.6339C13.2478 17.8683 13.5715 18 13.9091 18Z" fill="#626262"/>
</svg>
