<svg width="32" height="32" viewBox="0 0 32 32" fill="none" xmlns="http://www.w3.org/2000/svg">
<rect x="0.5" y="0.5" width="31" height="31" rx="3.5" fill="#F9F9F9"/>
<rect x="0.5" y="0.5" width="31" height="31" rx="3.5" stroke="#F0F0F0"/>
<path d="M14.3334 24.3335H17.6667C20.8094 24.3335 22.3808 24.3335 23.357 23.3572C24.3334 22.3809 24.3334 20.8095 24.3334 17.6668C24.3334 14.5242 24.3334 12.9528 23.357 11.9765C23.0549 11.6743 22.6953 11.4657 22.2497 11.3216C22.25 11.4629 22.25 11.6073 22.25 11.7543V13.5527C22.25 13.5772 22.2503 13.6038 22.2505 13.6324C22.2529 13.9161 22.2571 14.3917 22.0534 14.8267C21.8496 15.2617 21.4817 15.563 21.2621 15.7427C21.2402 15.7607 21.2192 15.7778 21.2006 15.7933L19.9452 16.8396C19.2279 17.4373 18.6034 17.9577 18.0421 18.3187C17.4371 18.7079 16.7826 18.9957 16 18.9957C15.2174 18.9957 14.563 18.7079 13.9579 18.3187C13.3966 17.9577 12.7722 17.4373 12.0549 16.8396L10.7995 15.7933C10.7807 15.7777 10.7601 15.7608 10.7379 15.7427C10.5184 15.563 10.1505 15.2617 9.94672 14.8267C9.74295 14.3917 9.74709 13.9161 9.74955 13.6324C9.7498 13.6038 9.75003 13.5772 9.75003 13.5527V11.7543C9.75001 11.6071 9.75 11.4627 9.75035 11.3213C9.30483 11.4654 8.94537 11.6741 8.643 11.9765C7.66669 12.9528 7.66669 14.5242 7.66669 17.6668C7.66669 20.8095 7.66669 22.3809 8.643 23.3572C9.6193 24.3335 11.1907 24.3335 14.3334 24.3335Z" fill="#626262"/>
<path fill-rule="evenodd" clip-rule="evenodd" d="M11.5998 14.8332L12.7991 15.8327C14.3297 17.1081 15.0949 17.7458 16.0001 17.7458C16.9052 17.7458 17.6705 17.1081 19.201 15.8327L20.4004 14.8332C20.6952 14.5874 20.8428 14.4646 20.9214 14.2966C21.0001 14.1286 21.0001 13.9367 21.0001 13.5528V11.8334C21.0001 11.5662 21.0001 11.3172 20.9985 11.0848C20.9888 9.60891 20.9171 8.80413 20.3899 8.27694C19.7797 7.66675 18.7976 7.66675 16.8334 7.66675H15.1667C13.2025 7.66675 12.2205 7.66675 11.6103 8.27694C11.0831 8.80413 11.0098 9.60891 11.0001 11.0848C10.9985 11.3172 11.0001 11.5662 11.0001 11.8334V13.5528C11.0001 13.9367 11.0001 14.1286 11.0787 14.2966C11.1574 14.4646 11.3049 14.5874 11.5998 14.8332ZM13.7083 11.0001C13.7083 10.6549 13.9882 10.3751 14.3333 10.3751H17.6667C18.0118 10.3751 18.2917 10.6549 18.2917 11.0001C18.2917 11.3453 18.0118 11.6251 17.6667 11.6251H14.3333C13.9882 11.6251 13.7083 11.3453 13.7083 11.0001ZM14.5417 13.5001C14.5417 13.1549 14.8215 12.8751 15.1667 12.8751H16.8333C17.1785 12.8751 17.4583 13.1549 17.4583 13.5001C17.4583 13.8453 17.1785 14.1251 16.8333 14.1251H15.1667C14.8215 14.1251 14.5417 13.8453 14.5417 13.5001Z" fill="#626262"/>
</svg>
