<svg width="18" height="19" viewBox="0 0 18 19" fill="none" xmlns="http://www.w3.org/2000/svg">
<path d="M1.5 9.5C1.5 9.5 3.75 4.25 9 4.25C14.25 4.25 16.5 9.5 16.5 9.5C16.5 9.5 14.25 14.75 9 14.75C3.75 14.75 1.5 9.5 1.5 9.5Z" stroke="#626262" stroke-width="1.25" stroke-linecap="round" stroke-linejoin="round"/>
<path d="M6.75 9.5C6.75 10.0967 6.98705 10.669 7.40901 11.091C7.83097 11.5129 8.40326 11.75 9 11.75C9.59674 11.75 10.169 11.5129 10.591 11.091C11.0129 10.669 11.25 10.0967 11.25 9.5C11.25 8.90326 11.0129 8.33097 10.591 7.90901C10.169 7.48705 9.59674 7.25 9 7.25C8.40326 7.25 7.83097 7.48705 7.40901 7.90901C6.98705 8.33097 6.75 8.90326 6.75 9.5Z" stroke="#626262" stroke-width="1.25" stroke-linecap="round" stroke-linejoin="round"/>
</svg>
