<svg width="20" height="20" viewBox="0 0 20 20" fill="none" xmlns="http://www.w3.org/2000/svg">
<path d="M2.91669 16.6666C2.58335 16.6666 2.29169 16.5416 2.04169 16.2916C1.79169 16.0416 1.66669 15.7499 1.66669 15.4166V4.58325C1.66669 4.24992 1.79169 3.95825 2.04169 3.70825C2.29169 3.45825 2.58335 3.33325 2.91669 3.33325H17.0834C17.4167 3.33325 17.7084 3.45825 17.9584 3.70825C18.2084 3.95825 18.3334 4.24992 18.3334 4.58325V15.4166C18.3334 15.7499 18.2084 16.0416 17.9584 16.2916C17.7084 16.5416 17.4167 16.6666 17.0834 16.6666H2.91669ZM17.0834 5.72909L10.3334 10.1458C10.2778 10.1735 10.2257 10.1978 10.1771 10.2187C10.1285 10.2395 10.0695 10.2499 10 10.2499C9.93056 10.2499 9.87156 10.2395 9.82294 10.2187C9.77431 10.1978 9.72223 10.1735 9.66669 10.1458L2.91669 5.72909V15.4166H17.0834V5.72909ZM10 9.12492L17 4.58325H3.02085L10 9.12492ZM2.91669 5.87492V5.05575V4.58325V5.06242V5.87492Z" fill="#00B241"/>
</svg>
