<svg width="20" height="20" viewBox="0 0 20 20" fill="none" xmlns="http://www.w3.org/2000/svg">
<path d="M2.91663 16.6666C2.58329 16.6666 2.29163 16.5416 2.04163 16.2916C1.79163 16.0416 1.66663 15.7499 1.66663 15.4166V4.58325C1.66663 4.24992 1.79163 3.95825 2.04163 3.70825C2.29163 3.45825 2.58329 3.33325 2.91663 3.33325H17.0833C17.4166 3.33325 17.7083 3.45825 17.9583 3.70825C18.2083 3.95825 18.3333 4.24992 18.3333 4.58325V15.4166C18.3333 15.7499 18.2083 16.0416 17.9583 16.2916C17.7083 16.5416 17.4166 16.6666 17.0833 16.6666H2.91663ZM17.0833 5.72909L10.3333 10.1458C10.2778 10.1735 10.2257 10.1978 10.177 10.2187C10.1284 10.2395 10.0694 10.2499 9.99996 10.2499C9.9305 10.2499 9.8715 10.2395 9.82288 10.2187C9.77425 10.1978 9.72217 10.1735 9.66663 10.1458L2.91663 5.72909V15.4166H17.0833V5.72909ZM9.99996 9.12492L17 4.58325H3.02079L9.99996 9.12492ZM2.91663 5.87492V5.05575V4.58325V5.06242V5.87492Z" fill="#00B241"/>
</svg>
