<svg width="48" height="48" viewBox="0 0 48 48" fill="none" xmlns="http://www.w3.org/2000/svg">
<rect width="48" height="48" rx="24" fill="white"/>
<path d="M24 21.75C22.7574 21.75 21.75 22.7574 21.75 24C21.75 25.2426 22.7574 26.25 24 26.25C25.2426 26.25 26.25 25.2426 26.25 24C26.25 22.7574 25.2426 21.75 24 21.75Z" fill="#383838"/>
<path fill-rule="evenodd" clip-rule="evenodd" d="M23.9548 14.25C22.1182 14.25 20.6786 14.25 19.5365 14.3737C18.3709 14.5 17.4266 14.7623 16.6202 15.3482C16.1321 15.7028 15.7028 16.1321 15.3482 16.6202C14.7623 17.4266 14.5 18.3709 14.3737 19.5365C14.25 20.6786 14.25 22.1182 14.25 23.9548V24.0452C14.25 25.8818 14.25 27.3214 14.3737 28.4635C14.5 29.6291 14.7623 30.5734 15.3482 31.3798C15.7028 31.8679 16.1321 32.2972 16.6202 32.6518C17.4266 33.2377 18.3709 33.5 19.5365 33.6263C20.6786 33.75 22.1182 33.75 23.9547 33.75H24.0453C25.8818 33.75 27.3214 33.75 28.4635 33.6263C29.6291 33.5 30.5734 33.2377 31.3798 32.6518C31.8679 32.2972 32.2972 31.8679 32.6518 31.3798C33.2377 30.5734 33.5 29.6291 33.6263 28.4635C33.75 27.3214 33.75 25.8818 33.75 24.0453V23.9547C33.75 22.1182 33.75 20.6786 33.6263 19.5365C33.5 18.3709 33.2377 17.4266 32.6518 16.6202C32.2972 16.1321 31.8679 15.7028 31.3798 15.3482C30.5734 14.7623 29.6291 14.5 28.4635 14.3737C27.3214 14.25 25.8818 14.25 24.0452 14.25H23.9548ZM20.25 24C20.25 21.9289 21.9289 20.25 24 20.25C26.0711 20.25 27.75 21.9289 27.75 24C27.75 26.0711 26.0711 27.75 24 27.75C21.9289 27.75 20.25 26.0711 20.25 24ZM29 20C28.4477 20 28 19.5523 28 19C28 18.4477 28.4477 18 29 18C29.5523 18 30 18.4477 30 19C30 19.5523 29.5523 20 29 20Z" fill="#383838"/>
</svg>
