<svg width="41" height="40" viewBox="0 0 41 40" fill="none" xmlns="http://www.w3.org/2000/svg">
<rect x="0.666626" width="40" height="40" rx="20" fill="#EEF9FF"/>
<path d="M13.4667 10.4C12.8029 10.4 12.2667 10.9362 12.2667 11.6V14C12.2667 14.6637 12.8029 15.2 13.4667 15.2H16.4667V16.4H14.3292C13.1442 16.4 12.1354 17.2662 11.9554 18.44L11.1079 24.0537C11.0817 24.23 11.0667 24.41 11.0667 24.59V27.2C11.0667 28.5237 12.1429 29.6 13.4667 29.6H27.8667C29.1904 29.6 30.2667 28.5237 30.2667 27.2V24.59C30.2667 24.41 30.2517 24.23 30.2254 24.05L29.3742 18.44C29.1979 17.2662 28.1892 16.4 27.0042 16.4H18.8667V15.2H21.8667C22.5304 15.2 23.0667 14.6637 23.0667 14V11.6C23.0667 10.9362 22.5304 10.4 21.8667 10.4H13.4667ZM14.6667 12.2H20.6667C20.9967 12.2 21.2667 12.47 21.2667 12.8C21.2667 13.13 20.9967 13.4 20.6667 13.4H14.6667C14.3367 13.4 14.0667 13.13 14.0667 12.8C14.0667 12.47 14.3367 12.2 14.6667 12.2ZM13.4667 26.6C13.4667 26.27 13.7367 26 14.0667 26H27.2667C27.5967 26 27.8667 26.27 27.8667 26.6C27.8667 26.93 27.5967 27.2 27.2667 27.2H14.0667C13.7367 27.2 13.4667 26.93 13.4667 26.6ZM15.2667 20.3C15.028 20.3 14.799 20.2052 14.6303 20.0364C14.4615 19.8676 14.3667 19.6387 14.3667 19.4C14.3667 19.1613 14.4615 18.9324 14.6303 18.7636C14.799 18.5948 15.028 18.5 15.2667 18.5C15.5053 18.5 15.7343 18.5948 15.903 18.7636C16.0718 18.9324 16.1667 19.1613 16.1667 19.4C16.1667 19.6387 16.0718 19.8676 15.903 20.0364C15.7343 20.2052 15.5053 20.3 15.2667 20.3ZM19.7667 19.4C19.7667 19.6387 19.6718 19.8676 19.503 20.0364C19.3343 20.2052 19.1053 20.3 18.8667 20.3C18.628 20.3 18.399 20.2052 18.2303 20.0364C18.0615 19.8676 17.9667 19.6387 17.9667 19.4C17.9667 19.1613 18.0615 18.9324 18.2303 18.7636C18.399 18.5948 18.628 18.5 18.8667 18.5C19.1053 18.5 19.3343 18.5948 19.503 18.7636C19.6718 18.9324 19.7667 19.1613 19.7667 19.4ZM17.0667 23.3C16.828 23.3 16.599 23.2052 16.4303 23.0364C16.2615 22.8676 16.1667 22.6387 16.1667 22.4C16.1667 22.1613 16.2615 21.9324 16.4303 21.7636C16.599 21.5948 16.828 21.5 17.0667 21.5C17.3053 21.5 17.5343 21.5948 17.703 21.7636C17.8718 21.9324 17.9667 22.1613 17.9667 22.4C17.9667 22.6387 17.8718 22.8676 17.703 23.0364C17.5343 23.2052 17.3053 23.3 17.0667 23.3ZM23.3667 19.4C23.3667 19.6387 23.2718 19.8676 23.103 20.0364C22.9343 20.2052 22.7053 20.3 22.4667 20.3C22.228 20.3 21.999 20.2052 21.8303 20.0364C21.6615 19.8676 21.5667 19.6387 21.5667 19.4C21.5667 19.1613 21.6615 18.9324 21.8303 18.7636C21.999 18.5948 22.228 18.5 22.4667 18.5C22.7053 18.5 22.9343 18.5948 23.103 18.7636C23.2718 18.9324 23.3667 19.1613 23.3667 19.4ZM20.6667 23.3C20.428 23.3 20.199 23.2052 20.0303 23.0364C19.8615 22.8676 19.7667 22.6387 19.7667 22.4C19.7667 22.1613 19.8615 21.9324 20.0303 21.7636C20.199 21.5948 20.428 21.5 20.6667 21.5C20.9053 21.5 21.1343 21.5948 21.303 21.7636C21.4718 21.9324 21.5667 22.1613 21.5667 22.4C21.5667 22.6387 21.4718 22.8676 21.303 23.0364C21.1343 23.2052 20.9053 23.3 20.6667 23.3ZM26.9667 19.4C26.9667 19.5182 26.9434 19.6352 26.8981 19.7444C26.8529 19.8536 26.7866 19.9528 26.703 20.0364C26.6195 20.12 26.5203 20.1863 26.4111 20.2315C26.3019 20.2767 26.1848 20.3 26.0667 20.3C25.9485 20.3 25.8314 20.2767 25.7222 20.2315C25.613 20.1863 25.5138 20.12 25.4303 20.0364C25.3467 19.9528 25.2804 19.8536 25.2352 19.7444C25.1899 19.6352 25.1667 19.5182 25.1667 19.4C25.1667 19.2818 25.1899 19.1648 25.2352 19.0556C25.2804 18.9464 25.3467 18.8472 25.4303 18.7636C25.5138 18.68 25.613 18.6137 25.7222 18.5685C25.8314 18.5233 25.9485 18.5 26.0667 18.5C26.1848 18.5 26.3019 18.5233 26.4111 18.5685C26.5203 18.6137 26.6195 18.68 26.703 18.7636C26.7866 18.8472 26.8529 18.9464 26.8981 19.0556C26.9434 19.1648 26.9667 19.2818 26.9667 19.4ZM24.2667 23.3C24.028 23.3 23.799 23.2052 23.6303 23.0364C23.4615 22.8676 23.3667 22.6387 23.3667 22.4C23.3667 22.1613 23.4615 21.9324 23.6303 21.7636C23.799 21.5948 24.028 21.5 24.2667 21.5C24.5053 21.5 24.7343 21.5948 24.903 21.7636C25.0718 21.9324 25.1667 22.1613 25.1667 22.4C25.1667 22.6387 25.0718 22.8676 24.903 23.0364C24.7343 23.2052 24.5053 23.3 24.2667 23.3Z" fill="#10A9FB"/>
</svg>
