<svg width="32" height="32" viewBox="0 0 32 32" fill="none" xmlns="http://www.w3.org/2000/svg">
<rect x="0.5" y="0.5" width="31" height="31" rx="3.5" fill="#ECFBF0"/>
<rect x="0.5" y="0.5" width="31" height="31" rx="3.5" stroke="#F0F0F0"/>
<path d="M16 24.3335C20.6023 24.3335 24.3333 22.6546 24.3333 20.5835C24.3333 19.528 23.3641 18.5742 21.8045 17.8928C20.8527 19.6393 19.4014 21.1447 17.5579 21.9326C16.567 22.3561 15.433 22.3561 14.442 21.9326C12.5985 21.1447 11.1472 19.6393 10.1954 17.8928C8.63575 18.5742 7.66663 19.528 7.66663 20.5835C7.66663 22.6546 11.3976 24.3335 16 24.3335Z" fill="#00B241"/>
<path fill-rule="evenodd" clip-rule="evenodd" d="M10.1666 13.0956C10.1666 10.0973 12.7783 7.66675 16 7.66675C19.2216 7.66675 21.8333 10.0973 21.8333 13.0956C21.8333 16.0704 19.9715 19.5417 17.0667 20.7831C16.3895 21.0724 15.6104 21.0724 14.9332 20.7831C12.0284 19.5417 10.1666 16.0704 10.1666 13.0956ZM16 15.1667C16.9205 15.1667 17.6666 14.4206 17.6666 13.5001C17.6666 12.5796 16.9205 11.8334 16 11.8334C15.0795 11.8334 14.3333 12.5796 14.3333 13.5001C14.3333 14.4206 15.0795 15.1667 16 15.1667Z" fill="#00B241"/>
</svg>
