<svg width="32" height="32" viewBox="0 0 32 32" fill="none" xmlns="http://www.w3.org/2000/svg">
<rect x="0.5" y="0.5" width="31" height="31" rx="3.5" fill="#F9F9F9"/>
<rect x="0.5" y="0.5" width="31" height="31" rx="3.5" stroke="#F0F0F0"/>
<path d="M16 24.3335C20.6024 24.3335 24.3334 22.6546 24.3334 20.5835C24.3334 19.528 23.3642 18.5742 21.8045 17.8928C20.8528 19.6393 19.4014 21.1447 17.5579 21.9326C16.567 22.3561 15.433 22.3561 14.4421 21.9326C12.5986 21.1447 11.1472 19.6393 10.1955 17.8928C8.63581 18.5742 7.66669 19.528 7.66669 20.5835C7.66669 22.6546 11.3976 24.3335 16 24.3335Z" fill="#626262"/>
<path fill-rule="evenodd" clip-rule="evenodd" d="M10.1667 13.0956C10.1667 10.0973 12.7784 7.66675 16 7.66675C19.2217 7.66675 21.8334 10.0973 21.8334 13.0956C21.8334 16.0704 19.9715 19.5417 17.0668 20.7831C16.3896 21.0724 15.6104 21.0724 14.9333 20.7831C12.0285 19.5417 10.1667 16.0704 10.1667 13.0956ZM16 15.1667C16.9205 15.1667 17.6667 14.4206 17.6667 13.5001C17.6667 12.5796 16.9205 11.8334 16 11.8334C15.0795 11.8334 14.3334 12.5796 14.3334 13.5001C14.3334 14.4206 15.0795 15.1667 16 15.1667Z" fill="#626262"/>
</svg>
