<svg width="33" height="32" viewBox="0 0 33 32" fill="none" xmlns="http://www.w3.org/2000/svg">
<rect x="0.833374" y="0.5" width="31" height="31" rx="3.5" fill="#F9F9F9"/>
<rect x="0.833374" y="0.5" width="31" height="31" rx="3.5" stroke="#F0F0F0"/>
<path d="M16.3333 24.3335C20.9357 24.3335 24.6667 22.6546 24.6667 20.5835C24.6667 19.528 23.6975 18.5742 22.1378 17.8928C21.1861 19.6393 19.7347 21.1447 17.8912 21.9326C16.9003 22.3561 15.7663 22.3561 14.7754 21.9326C12.9319 21.1447 11.4805 19.6393 10.5288 17.8928C8.96912 18.5742 8 19.528 8 20.5835C8 22.6546 11.731 24.3335 16.3333 24.3335Z" fill="#626262"/>
<path fill-rule="evenodd" clip-rule="evenodd" d="M10.5 13.0956C10.5 10.0973 13.1117 7.66675 16.3333 7.66675C19.555 7.66675 22.1667 10.0973 22.1667 13.0956C22.1667 16.0704 20.3048 19.5417 17.4001 20.7831C16.7229 21.0724 15.9437 21.0724 15.2666 20.7831C12.3618 19.5417 10.5 16.0704 10.5 13.0956ZM16.3333 15.1667C17.2538 15.1667 18 14.4206 18 13.5001C18 12.5796 17.2538 11.8334 16.3333 11.8334C15.4128 11.8334 14.6667 12.5796 14.6667 13.5001C14.6667 14.4206 15.4128 15.1667 16.3333 15.1667Z" fill="#626262"/>
</svg>
