<svg width="120" height="20" viewBox="0 0 120 20" fill="none" xmlns="http://www.w3.org/2000/svg">
<path d="M0.265625 19V1.53906H6.96875C8.22656 1.53906 9.27344 1.73828 10.1094 2.13672C10.9453 2.52734 11.5703 3.06641 11.9844 3.75391C12.3984 4.43359 12.6055 5.20312 12.6055 6.0625C12.6055 6.77344 12.4688 7.38281 12.1953 7.89062C11.9297 8.39062 11.5664 8.79688 11.1055 9.10938C10.6445 9.42188 10.1289 9.64844 9.55859 9.78906V9.96484C10.1836 9.98828 10.7773 10.1758 11.3398 10.5273C11.9102 10.8711 12.375 11.3555 12.7344 11.9805C13.1016 12.6055 13.2852 13.3594 13.2852 14.2422C13.2852 15.1484 13.0664 15.9609 12.6289 16.6797C12.1992 17.3906 11.543 17.957 10.6602 18.3789C9.78516 18.793 8.67969 19 7.34375 19H0.265625ZM3.42969 16.3633H6.82812C7.97656 16.3633 8.80469 16.1406 9.3125 15.6953C9.82812 15.25 10.0859 14.6836 10.0859 13.9961C10.0859 13.4727 9.95703 13.0039 9.69922 12.5898C9.44141 12.1758 9.07422 11.8477 8.59766 11.6055C8.12891 11.3633 7.57422 11.2422 6.93359 11.2422H3.42969V16.3633ZM3.42969 8.96875H6.57031C7.10938 8.96875 7.59766 8.86719 8.03516 8.66406C8.47266 8.46094 8.81641 8.17578 9.06641 7.80859C9.32422 7.43359 9.45312 6.99219 9.45312 6.48438C9.45312 5.8125 9.21484 5.25781 8.73828 4.82031C8.26172 4.375 7.5625 4.15234 6.64062 4.15234H3.42969V8.96875ZM18.793 19.2695C17.957 19.2695 17.207 19.1211 16.543 18.8242C15.8789 18.5195 15.3555 18.0742 14.9727 17.4883C14.5898 16.9023 14.3984 16.1797 14.3984 15.3203C14.3984 14.5859 14.5352 13.9766 14.8086 13.4922C15.082 13.0078 15.4531 12.6211 15.9219 12.332C16.3984 12.043 16.9336 11.8242 17.5273 11.6758C18.1211 11.5195 18.7344 11.4102 19.3672 11.3477C20.1406 11.2617 20.7656 11.1875 21.2422 11.125C21.7188 11.0625 22.0625 10.9609 22.2734 10.8203C22.4922 10.6797 22.6016 10.4609 22.6016 10.1641V10.1055C22.6016 9.47266 22.4141 8.98047 22.0391 8.62891C21.6641 8.27734 21.1172 8.10156 20.3984 8.10156C19.6406 8.10156 19.0391 8.26562 18.5938 8.59375C18.1562 8.92188 17.8594 9.30859 17.7031 9.75391L14.832 9.34375C15.0586 8.54688 15.4336 7.88281 15.957 7.35156C16.4805 6.8125 17.1172 6.41016 17.8672 6.14453C18.625 5.87109 19.4609 5.73438 20.375 5.73438C21 5.73438 21.625 5.80859 22.25 5.95703C22.875 6.09766 23.4492 6.33984 23.9727 6.68359C24.4961 7.02734 24.9141 7.48828 25.2266 8.06641C25.5391 8.64453 25.6953 9.36719 25.6953 10.2344V19H22.7305V17.1953H22.6367C22.4492 17.5547 22.1836 17.8945 21.8398 18.2148C21.5039 18.5273 21.082 18.7812 20.5742 18.9766C20.0742 19.1719 19.4805 19.2695 18.793 19.2695ZM19.5781 16.9961C20.2031 16.9961 20.7422 16.875 21.1953 16.6328C21.6484 16.3828 22 16.0547 22.25 15.6484C22.5 15.2344 22.625 14.7852 22.625 14.3008V12.7656C22.5234 12.8438 22.3594 12.918 22.1328 12.9883C21.9062 13.0508 21.6484 13.1094 21.3594 13.1641C21.0703 13.2188 20.7852 13.2656 20.5039 13.3047C20.2305 13.3438 19.9922 13.375 19.7891 13.3984C19.3281 13.4609 18.9141 13.5664 18.5469 13.7148C18.1875 13.8555 17.9023 14.0508 17.6914 14.3008C17.4805 14.5508 17.375 14.875 17.375 15.2734C17.375 15.8438 17.582 16.2734 17.9961 16.5625C18.4102 16.8516 18.9375 16.9961 19.5781 16.9961ZM31.0625 11.3359V19H27.9805V5.89844H31.0039V8.13672H31.1562C31.4531 7.40234 31.918 6.82031 32.5508 6.39062C33.1914 5.95312 34.0039 5.73438 34.9883 5.73438C35.8945 5.73438 36.6836 5.92578 37.3555 6.30859C38.0273 6.69141 38.5469 7.25391 38.9141 7.99609C39.2891 8.73047 39.4766 9.62109 39.4766 10.668V19H36.3945V11.1484C36.3945 10.2734 36.168 9.58984 35.7148 9.09766C35.2617 8.59766 34.6367 8.34766 33.8398 8.34766C33.3008 8.34766 32.8203 8.46484 32.3984 8.69922C31.9844 8.93359 31.6562 9.27344 31.4141 9.71875C31.1797 10.1562 31.0625 10.6953 31.0625 11.3359ZM44.5742 14.8984L44.5625 11.1602H45.0664L49.7656 5.89844H53.375L47.5859 12.3555H46.9414L44.5742 14.8984ZM41.7617 19V1.53906H44.8438V19H41.7617ZM49.9766 19L45.7109 13.0469L47.7969 10.8672L53.668 19H49.9766ZM62.3867 14.8984L62.375 11.1602H62.8789L67.5781 5.89844H71.1875L65.3984 12.3555H64.7539L62.3867 14.8984ZM59.5742 19V1.53906H62.6562V19H59.5742ZM67.7891 19L63.5234 13.0469L65.6094 10.8672L71.4805 19H67.7891ZM72.3242 19V5.89844H75.3125V8.10156H75.4531C75.6875 7.33594 76.0977 6.75 76.6836 6.34375C77.2695 5.92969 77.9375 5.72266 78.6875 5.72266C78.8516 5.72266 79.0391 5.73047 79.25 5.74609C79.4688 5.76172 79.6484 5.78125 79.7891 5.80469V8.64062C79.6562 8.59375 79.4492 8.55469 79.168 8.52344C78.8867 8.49219 78.6172 8.47656 78.3594 8.47656C77.7891 8.47656 77.2812 8.59766 76.8359 8.83984C76.3906 9.08203 76.0391 9.41406 75.7812 9.83594C75.5312 10.2578 75.4062 10.75 75.4062 11.3125V19H72.3242ZM86.2109 19.2578C84.8984 19.2578 83.7656 18.9844 82.8125 18.4375C81.8594 17.8828 81.125 17.1016 80.6094 16.0938C80.1016 15.0859 79.8477 13.8984 79.8477 12.5312C79.8477 11.1797 80.1016 9.99609 80.6094 8.98047C81.1172 7.95703 81.832 7.16016 82.7539 6.58984C83.6758 6.01953 84.7617 5.73438 86.0117 5.73438C86.8164 5.73438 87.5781 5.86328 88.2969 6.12109C89.0234 6.37891 89.6641 6.77734 90.2188 7.31641C90.7812 7.85547 91.2227 8.54297 91.543 9.37891C91.8633 10.207 92.0234 11.1953 92.0234 12.3438V13.3047H81.2891V11.2305H90.4883L89.0469 11.8398C89.0469 11.0977 88.9336 10.4531 88.707 9.90625C88.4805 9.35156 88.1445 8.91797 87.6992 8.60547C87.2539 8.29297 86.6992 8.13672 86.0352 8.13672C85.3711 8.13672 84.8047 8.29297 84.3359 8.60547C83.8672 8.91797 83.5117 9.33984 83.2695 9.87109C83.0273 10.3945 82.9062 10.9805 82.9062 11.6289V13.0703C82.9062 13.8672 83.043 14.5508 83.3164 15.1211C83.5977 15.6836 83.9883 16.1133 84.4883 16.4102C84.9961 16.707 85.5859 16.8555 86.2578 16.8555C86.6953 16.8555 87.0938 16.793 87.4531 16.668C87.8203 16.543 88.1328 16.3555 88.3906 16.1055C88.6562 15.8477 88.8594 15.5312 89 15.1562L91.8828 15.4961C91.6953 16.2539 91.3477 16.918 90.8398 17.4883C90.3398 18.0508 89.6953 18.4883 88.9062 18.8008C88.125 19.1055 87.2266 19.2578 86.2109 19.2578ZM98.5273 19.2344C97.5039 19.2344 96.582 18.9727 95.7617 18.4492C94.9492 17.918 94.3086 17.1484 93.8398 16.1406C93.3711 15.1328 93.1367 13.9102 93.1367 12.4727C93.1367 11.0117 93.375 9.78125 93.8516 8.78125C94.3359 7.78125 94.9844 7.02344 95.7969 6.50781C96.6094 5.99219 97.5195 5.73438 98.5273 5.73438C99.3008 5.73438 99.9336 5.86328 100.426 6.12109C100.918 6.37891 101.309 6.69141 101.598 7.05859C101.895 7.41797 102.121 7.75391 102.277 8.06641H102.406V1.53906H105.477V19H102.465V16.9258H102.277C102.113 17.2461 101.883 17.5859 101.586 17.9453C101.289 18.2969 100.895 18.6016 100.402 18.8594C99.9102 19.1094 99.2852 19.2344 98.5273 19.2344ZM99.3828 16.7031C100.039 16.7031 100.594 16.5273 101.047 16.1758C101.508 15.8164 101.859 15.3203 102.102 14.6875C102.344 14.0469 102.465 13.3047 102.465 12.4609C102.465 11.6094 102.344 10.8711 102.102 10.2461C101.867 9.61328 101.52 9.125 101.059 8.78125C100.605 8.4375 100.047 8.26562 99.3828 8.26562C98.7031 8.26562 98.1328 8.44531 97.6719 8.80469C97.2109 9.16406 96.8633 9.66016 96.6289 10.293C96.4023 10.9258 96.2891 11.6484 96.2891 12.4609C96.2891 13.2734 96.4062 14 96.6406 14.6406C96.875 15.2812 97.2188 15.7852 97.6719 16.1523C98.1328 16.5195 98.7031 16.7031 99.3828 16.7031ZM107.762 19V5.89844H110.844V19H107.762ZM109.309 4.05859C108.816 4.05859 108.395 3.89453 108.043 3.56641C107.691 3.23828 107.516 2.84375 107.516 2.38281C107.516 1.91406 107.691 1.51562 108.043 1.1875C108.395 0.859375 108.816 0.695312 109.309 0.695312C109.793 0.695312 110.211 0.859375 110.562 1.1875C110.914 1.51562 111.09 1.91016 111.09 2.37109C111.09 2.83984 110.914 3.23828 110.562 3.56641C110.211 3.89453 109.793 4.05859 109.309 4.05859ZM119.656 5.89844V8.28906H112.145V5.89844H119.656ZM113.984 2.78125H117.066V15.0625C117.066 15.5781 117.18 15.9609 117.406 16.2109C117.633 16.4531 117.992 16.5742 118.484 16.5742C118.617 16.5742 118.766 16.5625 118.93 16.5391C119.094 16.5156 119.242 16.4883 119.375 16.457L119.902 18.8711C119.574 18.9727 119.242 19.0469 118.906 19.0938C118.57 19.1484 118.234 19.1758 117.898 19.1758C116.68 19.1758 115.723 18.8555 115.027 18.2148C114.332 17.5664 113.984 16.6836 113.984 15.5664V2.78125Z" fill="#222222"/>
</svg>
