<svg width="33" height="32" viewBox="0 0 33 32" fill="none" xmlns="http://www.w3.org/2000/svg">
<rect x="0.833374" y="0.5" width="31" height="31" rx="3.5" fill="#F9F9F9"/>
<rect x="0.833374" y="0.5" width="31" height="31" rx="3.5" stroke="#F0F0F0"/>
<path d="M14.6667 24.3335H18C21.1427 24.3335 22.7141 24.3335 23.6903 23.3572C24.6667 22.3809 24.6667 20.8095 24.6667 17.6668C24.6667 14.5242 24.6667 12.9528 23.6903 11.9765C23.3882 11.6743 23.0286 11.4657 22.583 11.3216C22.5833 11.4629 22.5833 11.6073 22.5833 11.7543V13.5527C22.5833 13.5772 22.5836 13.6038 22.5838 13.6324C22.5863 13.9161 22.5904 14.3917 22.3867 14.8267C22.1829 15.2617 21.815 15.563 21.5954 15.7427C21.5735 15.7607 21.5525 15.7778 21.5339 15.7933L20.2785 16.8396C19.5612 17.4373 18.9368 17.9577 18.3754 18.3187C17.7704 18.7079 17.1159 18.9957 16.3333 18.9957C15.5507 18.9957 14.8963 18.7079 14.2912 18.3187C13.7299 17.9577 13.1055 17.4373 12.3882 16.8396L11.1328 15.7933C11.114 15.7777 11.0934 15.7608 11.0713 15.7427C10.8517 15.563 10.4838 15.2617 10.28 14.8267C10.0763 14.3917 10.0804 13.9161 10.0829 13.6324C10.0831 13.6038 10.0833 13.5772 10.0833 13.5527V11.7543C10.0833 11.6071 10.0833 11.4627 10.0837 11.3213C9.63814 11.4654 9.27868 11.6741 8.97631 11.9765C8 12.9528 8 14.5242 8 17.6668C8 20.8095 8 22.3809 8.97631 23.3572C9.95262 24.3335 11.524 24.3335 14.6667 24.3335Z" fill="#626262"/>
<path fill-rule="evenodd" clip-rule="evenodd" d="M11.9331 14.8332L13.1325 15.8327C14.6631 17.1081 15.4283 17.7458 16.3335 17.7458C17.2385 17.7458 18.0039 17.1081 19.5344 15.8327L20.7338 14.8332C21.0286 14.5874 21.1761 14.4646 21.2548 14.2966C21.3335 14.1286 21.3335 13.9367 21.3335 13.5528V11.8334C21.3335 11.5662 21.3335 11.3172 21.3319 11.0848C21.3221 9.60891 21.2505 8.80413 20.7233 8.27694C20.113 7.66675 19.131 7.66675 17.1668 7.66675H15.5001C13.5359 7.66675 12.5538 7.66675 11.9436 8.27694C11.4164 8.80413 11.3432 9.60891 11.3334 11.0848C11.3319 11.3172 11.3334 11.5662 11.3334 11.8334V13.5528C11.3334 13.9367 11.3334 14.1286 11.4121 14.2966C11.4908 14.4646 11.6382 14.5874 11.9331 14.8332ZM14.0417 11.0001C14.0417 10.6549 14.3215 10.3751 14.6667 10.3751H18C18.3452 10.3751 18.625 10.6549 18.625 11.0001C18.625 11.3453 18.3452 11.6251 18 11.6251H14.6667C14.3215 11.6251 14.0417 11.3453 14.0417 11.0001ZM14.875 13.5001C14.875 13.1549 15.1549 12.8751 15.5 12.8751H17.1667C17.5119 12.8751 17.7917 13.1549 17.7917 13.5001C17.7917 13.8453 17.5119 14.1251 17.1667 14.1251H15.5C15.1549 14.1251 14.875 13.8453 14.875 13.5001Z" fill="#626262"/>
</svg>
