<svg width="41" height="40" viewBox="0 0 41 40" fill="none" xmlns="http://www.w3.org/2000/svg">
<rect x="0.333374" width="40" height="40" rx="20" fill="#3836B8" fill-opacity="0.12"/>
<path d="M14.4535 14.1199C14.4535 18.6463 19.3535 21.4754 23.2735 19.2121C25.0927 18.1618 26.2135 16.2206 26.2135 14.1199C26.2135 9.59348 21.3135 6.76447 17.3935 9.02768C15.5742 10.078 14.4535 12.0192 14.4535 14.1199ZM18.7945 23.3166L19.649 24.7407L18.1193 30.4323L16.4655 23.6841C16.3736 23.312 16.0153 23.0685 15.6432 23.165C12.4276 23.9689 10.0435 26.8813 10.0435 30.3496C10.0435 31.1306 10.6774 31.7599 11.4537 31.7599H29.2132C29.9941 31.7599 30.6235 31.126 30.6235 30.3496C30.6235 26.8813 28.2393 23.9689 25.0237 23.165C24.6516 23.0731 24.2933 23.3166 24.2014 23.6841L22.5476 30.4323L21.0179 24.7407L21.8724 23.3166C22.1664 22.8251 21.8126 22.2049 21.243 22.2049H19.4285C18.8589 22.2049 18.5051 22.8297 18.7991 23.3166H18.7945Z" fill="#3836B8"/>
</svg>
