<svg width="260" height="260" viewBox="0 0 260 260" fill="none" xmlns="http://www.w3.org/2000/svg">
<rect x="0.5" y="0.5" width="259" height="259" rx="11.5" fill="#EEF9FF"/>
<rect x="0.5" y="0.5" width="259" height="259" rx="11.5" stroke="#E0E7FB"/>
<g filter="url(#filter0_d_2044_1757)">
<rect x="70" y="70" width="120" height="120" rx="60" fill="#F7FCFF"/>
<rect x="70.5" y="70.5" width="119" height="119" rx="59.5" stroke="#3A6AFC" stroke-opacity="0.16"/>
<rect x="90" y="90" width="80" height="80" rx="40" fill="#10A9FB"/>
<g clip-path="url(#clip0_2044_1757)">
<path fill-rule="evenodd" clip-rule="evenodd" d="M117.927 117.643C117.868 117.643 117.809 117.655 117.754 117.677C117.699 117.7 117.649 117.733 117.607 117.774C117.565 117.816 117.532 117.866 117.509 117.921C117.486 117.976 117.474 118.034 117.474 118.094V137.57H137.861V132.165C137.861 131.71 138.041 131.274 138.363 130.952C138.684 130.631 139.12 130.45 139.575 130.45C140.03 130.45 140.466 130.631 140.787 130.952C141.109 131.274 141.289 131.71 141.289 132.165V141.906C141.289 144.048 139.552 145.785 137.41 145.785H117.922C115.781 145.785 114.043 144.048 114.043 141.906V118.094C114.045 117.065 114.454 116.078 115.183 115.351C115.911 114.623 116.898 114.215 117.927 114.215H131.998C132.452 114.215 132.888 114.395 133.21 114.717C133.531 115.038 133.712 115.474 133.712 115.929C133.712 116.384 133.531 116.82 133.21 117.141C132.888 117.463 132.452 117.643 131.998 117.643H117.927ZM122.256 120.873C122.068 120.873 121.883 120.91 121.709 120.982C121.536 121.054 121.379 121.159 121.246 121.292C121.113 121.424 121.008 121.582 120.936 121.755C120.864 121.928 120.827 122.114 120.827 122.302C120.827 122.489 120.864 122.675 120.936 122.848C121.008 123.022 121.113 123.179 121.246 123.312C121.379 123.445 121.536 123.55 121.709 123.622C121.883 123.693 122.068 123.73 122.256 123.73H126.585C126.964 123.73 127.327 123.58 127.595 123.312C127.863 123.044 128.014 122.681 128.014 122.302C128.014 121.923 127.863 121.559 127.595 121.292C127.327 121.024 126.964 120.873 126.585 120.873H122.256ZM120.827 128.857C120.827 128.069 121.467 127.429 122.256 127.429H124.421C124.799 127.429 125.163 127.579 125.431 127.847C125.699 128.115 125.849 128.478 125.849 128.857C125.849 129.236 125.699 129.599 125.431 129.867C125.163 130.135 124.799 130.286 124.421 130.286H122.256C121.877 130.286 121.514 130.135 121.246 129.867C120.978 129.599 120.827 129.236 120.827 128.857ZM135.301 131.221C135.531 131.179 135.744 131.067 135.909 130.901L145.278 121.488C145.492 121.275 145.662 121.023 145.778 120.744C145.894 120.466 145.954 120.167 145.954 119.865C145.954 119.563 145.894 119.265 145.778 118.986C145.662 118.708 145.492 118.455 145.278 118.242L142.855 115.819C142.642 115.605 142.39 115.435 142.111 115.319C141.833 115.203 141.534 115.143 141.232 115.143C140.93 115.143 140.632 115.203 140.353 115.319C140.074 115.435 139.822 115.605 139.609 115.819L130.201 125.182C130.032 125.351 129.92 125.569 129.881 125.806L129.058 130.793C129.029 130.974 129.043 131.159 129.1 131.333C129.156 131.507 129.254 131.665 129.385 131.794C129.516 131.922 129.675 132.017 129.85 132.071C130.025 132.125 130.211 132.136 130.391 132.103L135.301 131.221Z" fill="white"/>
</g>
</g>
<g opacity="0.5">
<path fill-rule="evenodd" clip-rule="evenodd" d="M59.0253 196.224C59.6847 195.984 60.3986 195.935 61.0847 196.085C61.7774 196.236 62.4123 196.583 62.9136 197.084C63.4149 197.585 63.7618 198.219 63.913 198.912C64.0626 199.597 64.0141 200.311 63.7735 200.97L55.5999 225.453C55.4008 226.055 55.0497 226.597 54.5811 227.025C54.1139 227.452 53.5451 227.752 52.9291 227.896C52.3129 228.046 51.6683 228.033 51.0584 227.859C50.4491 227.685 49.8955 227.356 49.4519 226.904L45.0671 222.542L40.461 224.922C40.1019 225.108 39.6713 225.09 39.3287 224.875C38.986 224.661 38.7822 224.281 38.7927 223.878L38.9816 216.601L55.0929 204.905C55.7317 204.441 55.8735 203.548 55.4094 202.909C54.9454 202.271 54.0517 202.129 53.413 202.593L37.0282 214.488L33.0724 210.534C32.6441 210.107 32.3283 209.579 32.1542 208.999C31.9814 208.423 31.9534 207.814 32.0724 207.225C32.1916 206.582 32.4794 205.981 32.9065 205.485C33.3366 204.986 33.8924 204.61 34.5164 204.397L34.5241 204.394L59.0253 196.224Z" fill="#DAE2F9"/>
</g>
<g opacity="0.5">
<path fill-rule="evenodd" clip-rule="evenodd" d="M234.025 154.224C234.685 153.984 235.399 153.935 236.085 154.085C236.777 154.236 237.412 154.583 237.914 155.084C238.415 155.585 238.762 156.219 238.913 156.912C239.063 157.597 239.014 158.311 238.773 158.97L230.6 183.453C230.401 184.055 230.05 184.597 229.581 185.025C229.114 185.452 228.545 185.752 227.929 185.896C227.313 186.046 226.668 186.033 226.058 185.859C225.449 185.685 224.896 185.356 224.452 184.904L220.067 180.542L215.461 182.922C215.102 183.108 214.671 183.09 214.329 182.875C213.986 182.661 213.782 182.281 213.793 181.878L213.982 174.601L230.093 162.905C230.732 162.441 230.873 161.548 230.409 160.909C229.945 160.271 229.052 160.129 228.413 160.593L212.028 172.488L208.072 168.534C207.644 168.107 207.328 167.579 207.154 166.999C206.981 166.423 206.953 165.814 207.072 165.225C207.192 164.582 207.479 163.981 207.907 163.485C208.337 162.986 208.892 162.61 209.516 162.397L209.524 162.394L234.025 154.224Z" fill="#DAE2F9"/>
</g>
<g opacity="0.5">
<path fill-rule="evenodd" clip-rule="evenodd" d="M69.0253 50.2245C69.6847 49.9839 70.3986 49.9355 71.0847 50.085C71.7774 50.2361 72.4123 50.5828 72.9136 51.0838C73.4149 51.5849 73.7618 52.2193 73.913 52.9117C74.0626 53.5972 74.0141 54.3109 73.7735 54.9697L65.5999 79.4528C65.4008 80.0548 65.0497 80.5974 64.5811 81.0253C64.1139 81.452 63.5451 81.7516 62.9291 81.8961C62.3129 82.0462 61.6683 82.0334 61.0584 81.8593C60.4491 81.6853 59.8955 81.3562 59.4519 80.9041L55.0671 76.5419L50.461 78.9223C50.1019 79.1079 49.6713 79.0901 49.3287 78.8755C48.986 78.6611 48.7822 78.2814 48.7927 77.8776L48.9816 70.6009L65.0929 58.9046C65.7317 58.441 65.8735 57.5477 65.4094 56.9094C64.9454 56.2711 64.0517 56.1295 63.413 56.5931L47.0282 68.4877L43.0724 64.5344C42.6441 64.1065 42.3283 63.5787 42.1542 62.9989C41.9814 62.4233 41.9534 61.814 42.0724 61.2251C42.1916 60.5817 42.4794 59.9813 42.9065 59.4851C43.3366 58.9856 43.8924 58.6099 44.5164 58.3969L44.5241 58.3943L69.0253 50.2245Z" fill="#DAE2F9"/>
</g>
<g opacity="0.5">
<path fill-rule="evenodd" clip-rule="evenodd" d="M220.025 34.2245C220.685 33.9839 221.399 33.9355 222.085 34.085C222.777 34.2361 223.412 34.5828 223.914 35.0838C224.415 35.5849 224.762 36.2193 224.913 36.9117C225.063 37.5972 225.014 38.3109 224.773 38.9697L216.6 63.4528C216.401 64.0548 216.05 64.5974 215.581 65.0253C215.114 65.452 214.545 65.7516 213.929 65.8961C213.313 66.0462 212.668 66.0334 212.058 65.8593C211.449 65.6853 210.896 65.3562 210.452 64.9041L206.067 60.5419L201.461 62.9223C201.102 63.1079 200.671 63.0901 200.329 62.8755C199.986 62.6611 199.782 62.2814 199.793 61.8776L199.982 54.6009L216.093 42.9046C216.732 42.441 216.873 41.5477 216.409 40.9094C215.945 40.2711 215.052 40.1295 214.413 40.5931L198.028 52.4877L194.072 48.5344C193.644 48.1065 193.328 47.5787 193.154 46.9989C192.981 46.4233 192.953 45.814 193.072 45.2251C193.192 44.5817 193.479 43.9813 193.907 43.4851C194.337 42.9856 194.892 42.6099 195.516 42.3969L195.524 42.3943L220.025 34.2245Z" fill="#DAE2F9"/>
</g>
<defs>
<filter id="filter0_d_2044_1757" x="12" y="12" width="200" height="200" filterUnits="userSpaceOnUse" color-interpolation-filters="sRGB">
<feFlood flood-opacity="0" result="BackgroundImageFix"/>
<feColorMatrix in="SourceAlpha" type="matrix" values="0 0 0 0 0 0 0 0 0 0 0 0 0 0 0 0 0 0 127 0" result="hardAlpha"/>
<feOffset dx="-18" dy="-18"/>
<feGaussianBlur stdDeviation="20"/>
<feColorMatrix type="matrix" values="0 0 0 0 0.439216 0 0 0 0 0.564706 0 0 0 0 0.690196 0 0 0 0.12 0"/>
<feBlend mode="normal" in2="BackgroundImageFix" result="effect1_dropShadow_2044_1757"/>
<feBlend mode="normal" in="SourceGraphic" in2="effect1_dropShadow_2044_1757" result="shape"/>
</filter>
<clipPath id="clip0_2044_1757">
<rect width="32" height="32" fill="white" transform="translate(114 114)"/>
</clipPath>
</defs>
</svg>
