<svg width="33" height="32" viewBox="0 0 33 32" fill="none" xmlns="http://www.w3.org/2000/svg">
<rect x="0.833374" y="0.5" width="31" height="31" rx="3.5" fill="#F9F9F9"/>
<rect x="0.833374" y="0.5" width="31" height="31" rx="3.5" stroke="#F0F0F0"/>
<path d="M14.6981 10.4301L15.2389 11.3992C15.727 12.2737 15.5311 13.421 14.7623 14.1898C14.7622 14.1899 13.83 15.1223 15.5205 16.8128C17.2105 18.5028 18.1429 17.5717 18.1436 17.571C18.9123 16.8023 20.0596 16.6063 20.9342 17.0944L21.9032 17.6353C23.2239 18.3723 23.3798 20.2243 22.2191 21.3851C21.5216 22.0826 20.6671 22.6253 19.7225 22.6611C18.1324 22.7214 15.432 22.319 12.7232 19.6102C10.0144 16.9013 9.61192 14.2009 9.67221 12.6108C9.70802 11.6663 10.2507 10.8118 10.9483 10.1143C12.109 8.95349 13.9611 9.10945 14.6981 10.4301Z" fill="#626262"/>
<path d="M17.3829 7.56685C17.4381 7.22611 17.7602 6.99496 18.1009 7.05013C18.122 7.05416 18.1899 7.06685 18.2254 7.07477C18.2966 7.0906 18.3957 7.11499 18.5194 7.151C18.7667 7.22305 19.1122 7.34171 19.5269 7.53183C20.3572 7.91245 21.462 8.5783 22.6085 9.7248C23.755 10.8713 24.4208 11.9761 24.8014 12.8064C24.9916 13.221 25.1102 13.5666 25.1822 13.8139C25.2182 13.9375 25.2427 14.0367 25.2585 14.1078C25.2664 14.1434 25.2722 14.1719 25.2762 14.193L25.2811 14.219C25.3362 14.5598 25.1072 14.8952 24.7664 14.9504C24.4267 15.0054 24.1066 14.7754 24.0501 14.4362C24.0483 14.4271 24.0435 14.4026 24.0384 14.3795C24.0281 14.3334 24.0103 14.2602 23.9822 14.1634C23.9257 13.9698 23.8278 13.682 23.6652 13.3273C23.3403 12.6187 22.7562 11.6402 21.7246 10.6087C20.6931 9.57712 19.7146 8.99296 19.006 8.6681C18.6512 8.50547 18.3635 8.40753 18.1698 8.35114C18.0731 8.32295 17.9514 8.29501 17.9052 8.28474C17.5661 8.22822 17.3279 7.90662 17.3829 7.56685Z" fill="#626262"/>
<path fill-rule="evenodd" clip-rule="evenodd" d="M17.5714 10.4413C17.6663 10.1094 18.0122 9.91718 18.3441 10.012L18.3454 10.0123L18.3466 10.0127L18.3494 10.0135L18.3559 10.0155L18.3724 10.0206C18.3849 10.0246 18.4006 10.0298 18.4193 10.0365C18.4567 10.0498 18.5062 10.0687 18.5669 10.0947C18.6883 10.1467 18.8541 10.227 19.0579 10.3476C19.4658 10.589 20.0226 10.99 20.6768 11.6442C21.3309 12.2983 21.7319 12.8551 21.9733 13.263C22.0939 13.4668 22.1742 13.6327 22.2263 13.7541C22.2523 13.8147 22.2712 13.8642 22.2844 13.9016C22.2911 13.9203 22.2963 13.936 22.3004 13.9486L22.3054 13.9651L22.3074 13.9715L22.3082 13.9743L22.3085 13.9756C22.3085 13.9756 22.3089 13.9768 21.7079 14.1485L22.3089 13.9768C22.4038 14.3087 22.2115 14.6546 21.8797 14.7495C21.5506 14.8435 21.2077 14.6553 21.1094 14.3286L21.1064 14.3196C21.1019 14.3071 21.0928 14.2825 21.0774 14.2465C21.0465 14.1745 20.9906 14.0568 20.8976 13.8997C20.7118 13.5857 20.3762 13.1113 19.7929 12.528C19.2096 11.9447 18.7352 11.6092 18.4213 11.4233C18.2641 11.3303 18.1464 11.2744 18.0744 11.2436C18.0384 11.2282 18.0138 11.219 18.0013 11.2145L17.9923 11.2114C17.6656 11.1132 17.4774 10.7703 17.5714 10.4413Z" fill="#626262"/>
</svg>
