<svg width="32" height="32" viewBox="0 0 32 32" fill="none" xmlns="http://www.w3.org/2000/svg">
<rect x="0.5" y="0.5" width="31" height="31" rx="3.5" fill="#F9F9F9"/>
<rect x="0.5" y="0.5" width="31" height="31" rx="3.5" stroke="#F0F0F0"/>
<path d="M14.3646 10.4301L14.9055 11.3992C15.3936 12.2737 15.1976 13.421 14.4289 14.1898C14.4288 14.1899 13.4965 15.1223 15.1871 16.8128C16.8771 18.5028 17.8095 17.5717 17.8101 17.571C18.5789 16.8023 19.7261 16.6063 20.6007 17.0944L21.5698 17.6353C22.8905 18.3723 23.0464 20.2243 21.8856 21.3851C21.1881 22.0826 20.3336 22.6253 19.3891 22.6611C17.799 22.7214 15.0986 22.319 12.3897 19.6102C9.68092 16.9013 9.27849 14.2009 9.33877 12.6108C9.37458 11.6663 9.91731 10.8118 10.6148 10.1143C11.7756 8.95349 13.6276 9.10945 14.3646 10.4301Z" fill="#626262"/>
<path d="M17.0496 7.56685C17.1048 7.22611 17.4268 6.99496 17.7676 7.05013C17.7887 7.05416 17.8566 7.06685 17.8921 7.07477C17.9633 7.0906 18.0624 7.11499 18.1861 7.151C18.4334 7.22305 18.7789 7.34171 19.1936 7.53183C20.0238 7.91245 21.1287 8.5783 22.2752 9.7248C23.4217 10.8713 24.0875 11.9761 24.4681 12.8064C24.6583 13.221 24.7769 13.5666 24.8489 13.8139C24.8849 13.9375 24.9093 14.0367 24.9252 14.1078C24.9331 14.1434 24.9389 14.1719 24.9429 14.193L24.9478 14.219C25.0028 14.5598 24.7738 14.8952 24.4331 14.9504C24.0933 15.0054 23.7733 14.7754 23.7168 14.4362C23.715 14.4271 23.7102 14.4026 23.7051 14.3795C23.6948 14.3334 23.677 14.2602 23.6488 14.1634C23.5924 13.9698 23.4945 13.682 23.3318 13.3273C23.007 12.6187 22.4228 11.6402 21.3913 10.6087C20.3598 9.57712 19.3813 8.99296 18.6727 8.6681C18.3179 8.50547 18.0302 8.40753 17.8365 8.35114C17.7398 8.32295 17.6181 8.29501 17.5719 8.28474C17.2328 8.22822 16.9946 7.90662 17.0496 7.56685Z" fill="#626262"/>
<path fill-rule="evenodd" clip-rule="evenodd" d="M17.2381 10.4413C17.3329 10.1094 17.6788 9.91718 18.0107 10.012L18.012 10.0123L18.0132 10.0127L18.016 10.0135L18.0225 10.0155L18.039 10.0206C18.0515 10.0246 18.0672 10.0298 18.0859 10.0365C18.1233 10.0498 18.1728 10.0687 18.2335 10.0947C18.3549 10.1467 18.5207 10.227 18.7246 10.3476C19.1324 10.589 19.6892 10.99 20.3434 11.6442C20.9976 12.2983 21.3985 12.8551 21.6399 13.263C21.7605 13.4668 21.8408 13.6327 21.8929 13.7541C21.9189 13.8147 21.9378 13.8642 21.9511 13.9016C21.9577 13.9203 21.9629 13.936 21.967 13.9486L21.9721 13.9651L21.974 13.9715L21.9748 13.9743L21.9751 13.9756C21.9751 13.9756 21.9756 13.9768 21.3746 14.1485L21.9756 13.9768C22.0704 14.3087 21.8781 14.6546 21.5463 14.7495C21.2172 14.8435 20.8743 14.6553 20.7761 14.3286L20.773 14.3196C20.7686 14.3071 20.7594 14.2825 20.744 14.2465C20.7131 14.1745 20.6572 14.0568 20.5642 13.8997C20.3784 13.5857 20.0428 13.1113 19.4595 12.528C18.8762 11.9447 18.4018 11.6092 18.0879 11.4233C17.9307 11.3303 17.8131 11.2744 17.7411 11.2436C17.7051 11.2282 17.6804 11.219 17.6679 11.2145L17.6589 11.2114C17.3322 11.1132 17.1441 10.7703 17.2381 10.4413Z" fill="#626262"/>
</svg>
