<svg width="48" height="48" viewBox="0 0 48 48" fill="none" xmlns="http://www.w3.org/2000/svg">
<rect width="48" height="48" rx="24" fill="white"/>
<path d="M34 24C34 29.5228 29.5228 34 24 34C18.4771 34 14 29.5228 14 24C14 18.4771 18.4771 14 24 14C29.5228 14 34 18.4771 34 24ZM24.3584 21.3825C23.3857 21.787 21.4418 22.6244 18.5266 23.8945C18.0532 24.0827 17.8052 24.2669 17.7827 24.4469C17.7445 24.7513 18.1256 24.8711 18.6446 25.0343C18.7152 25.0565 18.7883 25.0795 18.8633 25.1039C19.3739 25.2698 20.0607 25.464 20.4178 25.4717C20.7416 25.4787 21.1031 25.3452 21.5022 25.0711C24.226 23.2325 25.632 22.3032 25.7203 22.2832C25.7826 22.269 25.8689 22.2513 25.9273 22.3032C25.9858 22.3552 25.98 22.4536 25.9739 22.48C25.9361 22.641 24.4401 24.0318 23.666 24.7515C23.4351 24.9661 23.2101 25.1853 22.9833 25.4039C22.509 25.8611 22.1533 26.204 23.003 26.764C23.8644 27.3317 24.7323 27.8982 25.5724 28.4971C25.9867 28.7925 26.359 29.0579 26.8188 29.0156C27.0861 28.991 27.3621 28.7397 27.5022 27.9903C27.8335 26.2193 28.4847 22.3821 28.6352 20.8008C28.6484 20.6623 28.6318 20.485 28.6185 20.4072C28.6052 20.3293 28.5773 20.2184 28.4762 20.1363C28.3563 20.0391 28.1714 20.0186 28.0887 20.0201C27.7125 20.0267 27.1355 20.2274 24.3584 21.3825Z" fill="#383838"/>
</svg>
