<svg width="32" height="24" viewBox="0 0 32 24" fill="none" xmlns="http://www.w3.org/2000/svg">
<mask id="mask0_92_1603" style="mask-type:luminance" maskUnits="userSpaceOnUse" x="0" y="0" width="32" height="24">
<path d="M0 0H32V24H0V0Z" fill="white"/>
</mask>
<g mask="url(#mask0_92_1603)">
<path fill-rule="evenodd" clip-rule="evenodd" d="M0 0V24H32V0H0Z" fill="#2E42A5"/>
<mask id="mask1_92_1603" style="mask-type:luminance" maskUnits="userSpaceOnUse" x="0" y="0" width="32" height="24">
<path fill-rule="evenodd" clip-rule="evenodd" d="M0 0V24H32V0H0Z" fill="white"/>
</mask>
<g mask="url(#mask1_92_1603)">
<mask id="mask2_92_1603" style="mask-type:luminance" maskUnits="userSpaceOnUse" x="0" y="0" width="32" height="24">
<path d="M0 0H32V24H0V0Z" fill="white"/>
</mask>
<g mask="url(#mask2_92_1603)">
<path d="M-3.56331 22.2854L3.47838 25.2634L32.1596 3.23779L35.8739 -1.18768L28.3439 -2.18304L16.6455 7.30842L7.22948 13.7035L-3.56331 22.2854Z" fill="white"/>
<path d="M-2.5993 24.3719L0.988109 26.1001L34.5401 -1.59888H29.503L-2.5993 24.3719Z" fill="#F50100"/>
<path d="M35.563 22.2854L28.5213 25.2634L-0.159888 3.23779L-3.87422 -1.18768L3.65586 -2.18304L15.3542 7.30842L24.7702 13.7035L35.563 22.2854Z" fill="white"/>
<path d="M35.3228 23.7829L31.7354 25.5111L17.4486 13.6518L13.2128 12.3267L-4.23157 -1.17249H0.80558L18.2402 12.0063L22.8712 13.5952L35.3228 23.7829Z" fill="#F50100"/>
<path fill-rule="evenodd" clip-rule="evenodd" d="M19.7776 -2H12.2221V8H-1.9726V16H12.2221V26H19.7776V16H34.0274V8H19.7776V-2Z" fill="#F50100"/>
<mask id="mask3_92_1603" style="mask-type:luminance" maskUnits="userSpaceOnUse" x="-2" y="-2" width="37" height="28">
<path fill-rule="evenodd" clip-rule="evenodd" d="M19.7776 -2H12.2221V8H-1.9726V16H12.2221V26H19.7776V16H34.0274V8H19.7776V-2Z" fill="white"/>
</mask>
<g mask="url(#mask3_92_1603)">
<path d="M12.2221 -2V-4H10.2221V-2H12.2221ZM19.7776 -2H21.7776V-4H19.7776V-2ZM12.2221 8V10H14.2221V8H12.2221ZM-1.9726 8V6H-3.9726V8H-1.9726ZM-1.9726 16H-3.9726V18H-1.9726V16ZM12.2221 16H14.2221V14H12.2221V16ZM12.2221 26H10.2221V28H12.2221V26ZM19.7776 26V28H21.7776V26H19.7776ZM19.7776 16V14H17.7776V16H19.7776ZM34.0274 16V18H36.0274V16H34.0274ZM34.0274 8H36.0274V6H34.0274V8ZM19.7776 8H17.7776V10H19.7776V8ZM12.2221 -2.38419e-07H19.7776V-4H12.2221V-2.38419e-07ZM14.2221 8V-2H10.2221V8H14.2221ZM-1.9726 10H12.2221V6H-1.9726V10ZM0.027401 16V8H-3.9726V16H0.027401ZM12.2221 14H-1.9726V18H12.2221V14ZM14.2221 26V16H10.2221V26H14.2221ZM19.7776 24H12.2221V28H19.7776V24ZM17.7776 16V26H21.7776V16H17.7776ZM34.0274 14H19.7776V18H34.0274V14ZM32.0274 8V16H36.0274V8H32.0274ZM19.7776 10H34.0274V6H19.7776V10ZM17.7776 -2V8H21.7776V-2H17.7776Z" fill="white"/>
</g>
</g>
</g>
</g>
</svg>
