<svg width="32" height="24" viewBox="0 0 32 24" fill="none" xmlns="http://www.w3.org/2000/svg">
<mask id="mask0_207_2419" style="mask-type:luminance" maskUnits="userSpaceOnUse" x="0" y="0" width="32" height="24">
<path d="M0 0H32V24H0V0Z" fill="white"/>
</mask>
<g mask="url(#mask0_207_2419)">
<path fill-rule="evenodd" clip-rule="evenodd" d="M0 0V24H32V0H0Z" fill="#2E42A5"/>
<mask id="mask1_207_2419" style="mask-type:luminance" maskUnits="userSpaceOnUse" x="0" y="0" width="32" height="24">
<path fill-rule="evenodd" clip-rule="evenodd" d="M0 0V24H32V0H0Z" fill="white"/>
</mask>
<g mask="url(#mask1_207_2419)">
<mask id="mask2_207_2419" style="mask-type:luminance" maskUnits="userSpaceOnUse" x="0" y="0" width="32" height="24">
<path d="M0 0H32V24H0V0Z" fill="white"/>
</mask>
<g mask="url(#mask2_207_2419)">
<path d="M-3.56323 22.2854L3.47846 25.2634L32.1597 3.23779L35.874 -1.18768L28.344 -2.18304L16.6456 7.30842L7.22956 13.7035L-3.56323 22.2854Z" fill="white"/>
<path d="M-2.59924 24.3719L0.98817 26.1001L34.5402 -1.59888H29.5031L-2.59924 24.3719Z" fill="#F50100"/>
<path d="M35.5631 22.2854L28.5214 25.2634L-0.159812 3.23779L-3.87415 -1.18768L3.65594 -2.18304L15.3543 7.30842L24.7703 13.7035L35.5631 22.2854Z" fill="white"/>
<path d="M35.323 23.7829L31.7356 25.5111L17.4488 13.6518L13.213 12.3267L-4.23145 -1.17249H0.805702L18.2404 12.0063L22.8714 13.5952L35.323 23.7829Z" fill="#F50100"/>
<path fill-rule="evenodd" clip-rule="evenodd" d="M19.7777 -2H12.2222V8H-1.97253V16H12.2222V26H19.7777V16H34.0275V8H19.7777V-2Z" fill="#F50100"/>
<mask id="mask3_207_2419" style="mask-type:luminance" maskUnits="userSpaceOnUse" x="-2" y="-2" width="37" height="28">
<path fill-rule="evenodd" clip-rule="evenodd" d="M19.7777 -2H12.2222V8H-1.97253V16H12.2222V26H19.7777V16H34.0275V8H19.7777V-2Z" fill="white"/>
</mask>
<g mask="url(#mask3_207_2419)">
<path d="M12.2222 -2V-4H10.2222V-2H12.2222ZM19.7777 -2H21.7777V-4H19.7777V-2ZM12.2222 8V10H14.2222V8H12.2222ZM-1.97253 8V6H-3.97253V8H-1.97253ZM-1.97253 16H-3.97253V18H-1.97253V16ZM12.2222 16H14.2222V14H12.2222V16ZM12.2222 26H10.2222V28H12.2222V26ZM19.7777 26V28H21.7777V26H19.7777ZM19.7777 16V14H17.7777V16H19.7777ZM34.0275 16V18H36.0275V16H34.0275ZM34.0275 8H36.0275V6H34.0275V8ZM19.7777 8H17.7777V10H19.7777V8ZM12.2222 -2.38419e-07H19.7777V-4H12.2222V-2.38419e-07ZM14.2222 8V-2H10.2222V8H14.2222ZM-1.97253 10H12.2222V6H-1.97253V10ZM0.027462 16V8H-3.97253V16H0.027462ZM12.2222 14H-1.97253V18H12.2222V14ZM14.2222 26V16H10.2222V26H14.2222ZM19.7777 24H12.2222V28H19.7777V24ZM17.7777 16V26H21.7777V16H17.7777ZM34.0275 14H19.7777V18H34.0275V14ZM32.0275 8V16H36.0275V8H32.0275ZM19.7777 10H34.0275V6H19.7777V10ZM17.7777 -2V8H21.7777V-2H17.7777Z" fill="white"/>
</g>
</g>
</g>
</g>
</svg>
