<svg width="32" height="24" viewBox="0 0 32 24" fill="none" xmlns="http://www.w3.org/2000/svg">
<mask id="mask0_92_1548" style="mask-type:luminance" maskUnits="userSpaceOnUse" x="0" y="0" width="32" height="24">
<path d="M0 0H32V24H0V0Z" fill="white"/>
</mask>
<g mask="url(#mask0_92_1548)">
<path fill-rule="evenodd" clip-rule="evenodd" d="M0 0H32V24H0V0Z" fill="#F7FCFF"/>
<path fill-rule="evenodd" clip-rule="evenodd" d="M0 14.6667V16.6667H32V14.6667H0Z" fill="#E31D1C"/>
<path fill-rule="evenodd" clip-rule="evenodd" d="M0 18.3333V20.3333H32V18.3333H0Z" fill="#E31D1C"/>
<path fill-rule="evenodd" clip-rule="evenodd" d="M0 7.33325V9.33325H32V7.33325H0Z" fill="#E31D1C"/>
<path fill-rule="evenodd" clip-rule="evenodd" d="M0 22V24H32V22H0Z" fill="#E31D1C"/>
<path fill-rule="evenodd" clip-rule="evenodd" d="M0 11V13H32V11H0Z" fill="#E31D1C"/>
<path fill-rule="evenodd" clip-rule="evenodd" d="M0 0V2H32V0H0Z" fill="#E31D1C"/>
<path fill-rule="evenodd" clip-rule="evenodd" d="M0 3.66675V5.66675H32V3.66675H0Z" fill="#E31D1C"/>
<path d="M0 0H20V13H0V0Z" fill="#2E42A5"/>
<path fill-rule="evenodd" clip-rule="evenodd" d="M1.72195 2.93871L0.996071 3.44759L1.24113 2.54198L0.59642 1.96807H1.4385L1.72093 1.229L2.0521 1.96807H2.76996L2.20592 2.54198L2.42428 3.44759L1.72195 2.93871ZM5.72195 2.93871L4.99607 3.44759L5.24113 2.54198L4.59642 1.96807H5.4385L5.72093 1.229L6.0521 1.96807H6.76997L6.20592 2.54198L6.42428 3.44759L5.72195 2.93871ZM8.99608 3.44759L9.72196 2.93871L10.4243 3.44759L10.2059 2.54198L10.77 1.96807H10.0521L9.72093 1.229L9.43851 1.96807H8.59643L9.24114 2.54198L8.99608 3.44759ZM13.722 2.93871L12.9961 3.44759L13.2412 2.54198L12.5964 1.96807H13.4385L13.721 1.229L14.0521 1.96807H14.77L14.2059 2.54198L14.4243 3.44759L13.722 2.93871ZM0.996071 7.44759L1.72195 6.93871L2.42428 7.44759L2.20592 6.54198L2.76996 5.96807H2.0521L1.72093 5.229L1.4385 5.96807H0.59642L1.24113 6.54198L0.996071 7.44759ZM5.72195 6.93871L4.99607 7.44759L5.24113 6.54198L4.59642 5.96807H5.4385L5.72093 5.229L6.0521 5.96807H6.76997L6.20592 6.54198L6.42428 7.44759L5.72195 6.93871ZM8.99608 7.44759L9.72196 6.93871L10.4243 7.44759L10.2059 6.54198L10.77 5.96807H10.0521L9.72093 5.229L9.43851 5.96807H8.59643L9.24114 6.54198L8.99608 7.44759ZM13.722 6.93871L12.9961 7.44759L13.2412 6.54198L12.5964 5.96807H13.4385L13.721 5.229L14.0521 5.96807H14.77L14.2059 6.54198L14.4243 7.44759L13.722 6.93871ZM0.996071 11.4476L1.72195 10.9387L2.42428 11.4476L2.20592 10.542L2.76996 9.96807H2.0521L1.72093 9.229L1.4385 9.96807H0.59642L1.24113 10.542L0.996071 11.4476ZM5.72195 10.9387L4.99607 11.4476L5.24113 10.542L4.59642 9.96807H5.4385L5.72093 9.229L6.0521 9.96807H6.76997L6.20592 10.542L6.42428 11.4476L5.72195 10.9387ZM8.99608 11.4476L9.72196 10.9387L10.4243 11.4476L10.2059 10.542L10.77 9.96807H10.0521L9.72093 9.229L9.43851 9.96807H8.59643L9.24114 10.542L8.99608 11.4476ZM13.722 10.9387L12.9961 11.4476L13.2412 10.542L12.5964 9.96807H13.4385L13.721 9.229L14.0521 9.96807H14.77L14.2059 10.542L14.4243 11.4476L13.722 10.9387ZM16.9961 3.44759L17.722 2.93871L18.4243 3.44759L18.2059 2.54198L18.77 1.96807H18.0521L17.721 1.229L17.4385 1.96807H16.5964L17.2412 2.54198L16.9961 3.44759ZM17.722 6.93871L16.9961 7.44759L17.2412 6.54198L16.5964 5.96807H17.4385L17.721 5.229L18.0521 5.96807H18.77L18.2059 6.54198L18.4243 7.44759L17.722 6.93871ZM16.9961 11.4476L17.722 10.9387L18.4243 11.4476L18.2059 10.542L18.77 9.96807H18.0521L17.721 9.229L17.4385 9.96807H16.5964L17.2412 10.542L16.9961 11.4476ZM3.72195 4.93871L2.99607 5.44759L3.24113 4.54198L2.59642 3.96807H3.4385L3.72093 3.229L4.0521 3.96807H4.76996L4.20592 4.54198L4.42428 5.44759L3.72195 4.93871ZM6.99608 5.44759L7.72196 4.93871L8.42429 5.44759L8.20593 4.54198L8.76997 3.96807H8.05211L7.72094 3.229L7.43851 3.96807H6.59643L7.24114 4.54198L6.99608 5.44759ZM11.722 4.93871L10.9961 5.44759L11.2412 4.54198L10.5964 3.96807H11.4385L11.721 3.229L12.0521 3.96807H12.77L12.2059 4.54198L12.4243 5.44759L11.722 4.93871ZM2.99607 9.44759L3.72195 8.93871L4.42428 9.44759L4.20592 8.54198L4.76996 7.96807H4.0521L3.72093 7.229L3.4385 7.96807H2.59642L3.24113 8.54198L2.99607 9.44759ZM7.72196 8.93871L6.99608 9.44759L7.24114 8.54198L6.59643 7.96807H7.43851L7.72094 7.229L8.05211 7.96807H8.76997L8.20593 8.54198L8.42429 9.44759L7.72196 8.93871ZM10.9961 9.44759L11.722 8.93871L12.4243 9.44759L12.2059 8.54198L12.77 7.96807H12.0521L11.721 7.229L11.4385 7.96807H10.5964L11.2412 8.54198L10.9961 9.44759ZM15.722 4.93871L14.9961 5.44759L15.2412 4.54198L14.5964 3.96807H15.4385L15.721 3.229L16.0521 3.96807H16.77L16.2059 4.54198L16.4243 5.44759L15.722 4.93871ZM14.9961 9.44759L15.722 8.93871L16.4243 9.44759L16.2059 8.54198L16.77 7.96807H16.0521L15.721 7.229L15.4385 7.96807H14.5964L15.2412 8.54198L14.9961 9.44759Z" fill="#F7FCFF"/>
</g>
</svg>
