<svg width="21" height="20" viewBox="0 0 21 20" fill="none" xmlns="http://www.w3.org/2000/svg">
<path fill-rule="evenodd" clip-rule="evenodd" d="M1.41675 10.0001C1.41675 9.8343 1.4826 9.67533 1.59981 9.55812C1.71702 9.44091 1.87599 9.37506 2.04175 9.37506H16.783L12.8492 5.44256C12.7319 5.3252 12.666 5.16603 12.666 5.00006C12.666 4.83409 12.7319 4.67492 12.8492 4.55756C12.9666 4.4402 13.1258 4.37427 13.2917 4.37427C13.4577 4.37427 13.6169 4.4402 13.7342 4.55756L18.7342 9.55756C18.7925 9.61561 18.8386 9.68458 18.8701 9.76052C18.9016 9.83645 18.9179 9.91785 18.9179 10.0001C18.9179 10.0823 18.9016 10.1637 18.8701 10.2396C18.8386 10.3155 18.7925 10.3845 18.7342 10.4426L13.7342 15.4426C13.6169 15.5599 13.4577 15.6258 13.2917 15.6258C13.1258 15.6258 12.9666 15.5599 12.8492 15.4426C12.7319 15.3252 12.666 15.166 12.666 15.0001C12.666 14.8341 12.7319 14.6749 12.8492 14.5576L16.783 10.6251H2.04175C1.87599 10.6251 1.71702 10.5592 1.59981 10.442C1.4826 10.3248 1.41675 10.1658 1.41675 10.0001Z" fill="white"/>
</svg>

